<svg width="196" height="57" viewBox="0 0 196 57" fill="none" xmlns="http://www.w3.org/2000/svg">
<path d="M194.468 49.9783C194.468 52.9889 191.978 55.4275 188.899 55.4275H6.66236C3.58463 55.4275 1.08643 52.9889 1.08643 49.9783V6.52228C1.08643 3.5131 3.58463 1.06592 6.66236 1.06592H188.898C191.978 1.06592 194.466 3.5131 194.466 6.52228L194.468 49.9783Z" fill="black"/>
<path d="M188.311 1.13159C191.665 1.13159 194.394 3.79208 194.394 7.06164V49.4317C194.394 52.7013 191.665 55.3618 188.311 55.3618H7.24275C3.88936 55.3618 1.16065 52.7013 1.16065 49.4317V7.06164C1.16065 3.79208 3.88936 1.13159 7.24275 1.13159H188.311ZM188.311 -3.75717e-05H7.24275C3.26105 -3.75717e-05 0 3.17948 0 7.06164V49.4317C0 53.3139 3.26105 56.4934 7.24275 56.4934H188.311C192.293 56.4934 195.554 53.3139 195.554 49.4317V7.06164C195.554 3.17948 192.293 -3.75717e-05 188.311 -3.75717e-05Z" fill="#A6A6A6"/>
<path d="M43.6419 27.9417C43.5999 23.3897 47.4647 21.1752 47.6414 21.0721C45.4526 17.9607 42.0601 17.5356 40.868 17.5017C38.0187 17.2093 35.2548 19.164 33.8034 19.164C32.323 19.164 30.0878 17.5299 27.6789 17.578C24.579 17.6246 21.679 19.3745 20.0885 22.0918C16.8061 27.6324 19.2541 35.7745 22.3989 40.253C23.9721 42.4464 25.8103 44.8954 28.2163 44.8092C30.5702 44.7146 31.4495 43.346 34.2901 43.346C37.1046 43.346 37.9303 44.8092 40.3841 44.7541C42.9104 44.7146 44.5009 42.5509 46.019 40.3378C47.8369 37.8238 48.567 35.348 48.596 35.2209C48.5366 35.2011 43.6897 33.3975 43.6419 27.9417Z" fill="white"/>
<path d="M39.0066 14.5556C40.2726 13.0119 41.1388 10.9117 40.8984 8.78052C39.066 8.85961 36.7744 10.0163 35.4547 11.5261C34.2872 12.8565 33.2442 15.0372 33.5137 17.0879C35.5721 17.2376 37.6855 16.0752 39.0066 14.5556Z" fill="white"/>
<path d="M77.7075 44.4941H74.4178L72.6158 38.9733H66.3523L64.6358 44.4941H61.433L67.6386 25.6987H71.4715L77.7075 44.4941ZM72.0726 36.657L70.443 31.7492C70.2706 31.2478 69.9476 30.0671 69.471 28.2085H69.4131C69.2233 29.0078 68.9177 30.1885 68.4976 31.7492L66.8969 36.657H72.0726Z" fill="white"/>
<path d="M93.6661 37.551C93.6661 39.856 93.0273 41.6779 91.7497 43.0154C90.6054 44.206 89.1843 44.8006 87.4881 44.8006C85.6571 44.8006 84.3418 44.1594 83.5408 42.877H83.4828V50.0163H80.3945V35.4029C80.3945 33.9538 80.3554 32.4666 80.2801 30.9413H82.9961L83.1685 33.0895H83.2264C84.2564 31.4709 85.8193 30.6631 87.9168 30.6631C89.5566 30.6631 90.9255 31.2944 92.0206 32.5584C93.1186 33.8239 93.6661 35.4876 93.6661 37.551ZM90.5199 37.6612C90.5199 36.3421 90.2157 35.2546 89.6044 34.3987C88.9366 33.5061 88.04 33.0598 86.9159 33.0598C86.154 33.0598 85.4616 33.3084 84.843 33.7985C84.223 34.2928 83.8174 34.9382 83.6277 35.7376C83.5321 36.1105 83.4843 36.4155 83.4843 36.6556V38.9154C83.4843 39.9012 83.7943 40.733 84.4143 41.4124C85.0342 42.0917 85.8396 42.4307 86.8304 42.4307C87.9936 42.4307 88.899 41.9928 89.5465 41.12C90.1954 40.2458 90.5199 39.0933 90.5199 37.6612Z" fill="white"/>
<path d="M109.654 37.551C109.654 39.856 109.015 41.6779 107.736 43.0154C106.593 44.206 105.172 44.8006 103.476 44.8006C101.645 44.8006 100.329 44.1594 99.5299 42.877H99.4719V50.0163H96.3836V35.4029C96.3836 33.9538 96.3445 32.4666 96.2692 30.9413H98.9852L99.1576 33.0895H99.2155C100.244 31.4709 101.807 30.6631 103.906 30.6631C105.544 30.6631 106.913 31.2944 108.011 32.5584C109.105 33.8239 109.654 35.4876 109.654 37.551ZM106.508 37.6612C106.508 36.3421 106.202 35.2546 105.591 34.3987C104.923 33.5061 104.029 33.0598 102.904 33.0598C102.14 33.0598 101.449 33.3084 100.829 33.7985C100.209 34.2928 99.8051 34.9382 99.6153 35.7376C99.5212 36.1105 99.4719 36.4155 99.4719 36.6556V38.9154C99.4719 39.9012 99.7819 40.733 100.399 41.4124C101.019 42.0903 101.824 42.4307 102.818 42.4307C103.981 42.4307 104.887 41.9928 105.534 41.12C106.183 40.2458 106.508 39.0933 106.508 37.6612Z" fill="white"/>
<path d="M127.529 39.2233C127.529 40.822 126.96 42.1228 125.817 43.127C124.561 44.2244 122.812 44.7724 120.566 44.7724C118.491 44.7724 116.828 44.3825 115.57 43.6015L116.285 41.0918C117.641 41.8912 119.129 42.2923 120.75 42.2923C121.913 42.2923 122.818 42.0352 123.469 41.524C124.116 41.0127 124.439 40.3263 124.439 39.4704C124.439 38.7078 124.173 38.0652 123.638 37.544C123.106 37.0229 122.219 36.5384 120.979 36.0907C117.603 34.8634 115.917 33.0655 115.917 30.7012C115.917 29.1561 116.508 27.8893 117.692 26.9035C118.871 25.9162 120.444 25.4233 122.411 25.4233C124.165 25.4233 125.623 25.7213 126.786 26.3159L126.014 28.7706C124.927 28.1943 123.699 27.9062 122.324 27.9062C121.238 27.9062 120.389 28.1675 119.781 28.6873C119.266 29.1519 119.009 29.7183 119.009 30.3891C119.009 31.132 119.303 31.7464 119.894 32.2294C120.408 32.6757 121.342 33.1587 122.698 33.6799C124.357 34.3309 125.575 35.0922 126.358 35.965C127.139 36.835 127.529 37.9239 127.529 39.2233Z" fill="white"/>
<path d="M137.74 33.2011H134.336V39.7812C134.336 41.4548 134.935 42.2909 136.138 42.2909C136.69 42.2909 137.147 42.2443 137.509 42.1511L137.595 44.4376C136.986 44.6594 136.185 44.7709 135.193 44.7709C133.974 44.7709 133.02 44.408 132.332 43.6834C131.647 42.9575 131.302 41.7401 131.302 40.0297V33.1983H129.274V30.9385H131.302V28.457L134.336 27.5645V30.9385H137.74V33.2011Z" fill="white"/>
<path d="M153.099 37.6062C153.099 39.6894 152.487 41.3997 151.268 42.7372C149.989 44.1142 148.291 44.8006 146.175 44.8006C144.135 44.8006 142.511 44.1411 141.3 42.8219C140.089 41.5028 139.484 39.8377 139.484 37.8307C139.484 35.7306 140.107 34.0104 141.357 32.6729C142.604 31.334 144.287 30.6646 146.403 30.6646C148.443 30.6646 150.084 31.3241 151.323 32.6446C152.508 33.9256 153.099 35.5795 153.099 37.6062ZM149.894 37.7036C149.894 36.4537 149.621 35.3818 149.066 34.4877C148.418 33.4059 147.493 32.8664 146.293 32.8664C145.052 32.8664 144.109 33.4073 143.461 34.4877C142.907 35.3832 142.633 36.4721 142.633 37.7601C142.633 39.01 142.907 40.082 143.461 40.9746C144.129 42.0565 145.062 42.596 146.266 42.596C147.445 42.596 148.371 42.0452 149.038 40.9464C149.608 40.0354 149.894 38.9521 149.894 37.7036Z" fill="white"/>
<path d="M163.137 33.5894C162.832 33.5344 162.506 33.5061 162.164 33.5061C161.077 33.5061 160.237 33.9058 159.646 34.7066C159.132 35.4128 158.874 36.3054 158.874 37.383V44.4941H155.787L155.816 35.2094C155.816 33.6474 155.777 32.2251 155.7 30.9427H158.39L158.503 33.5358H158.589C158.915 32.6446 159.429 31.9271 160.133 31.389C160.821 30.9046 161.564 30.6631 162.365 30.6631C162.65 30.6631 162.908 30.6829 163.137 30.7182V33.5894Z" fill="white"/>
<path d="M176.949 37.0765C176.949 37.616 176.913 38.0708 176.836 38.4423H167.571C167.607 39.7812 168.055 40.8051 168.915 41.5113C169.696 42.1426 170.706 42.4589 171.946 42.4589C173.318 42.4589 174.569 42.2457 175.695 41.8177L176.178 43.908C174.863 44.4673 173.31 44.7455 171.518 44.7455C169.363 44.7455 167.671 44.1269 166.44 42.8911C165.211 41.6553 164.596 39.9958 164.596 37.914C164.596 35.8704 165.168 34.1685 166.314 32.8113C167.513 31.3622 169.134 30.6377 171.174 30.6377C173.177 30.6377 174.694 31.3622 175.724 32.8113C176.539 33.9623 176.949 35.386 176.949 37.0765ZM174.004 36.2955C174.024 35.4029 173.823 34.6318 173.404 33.9807C172.87 33.1432 172.049 32.7251 170.943 32.7251C169.934 32.7251 169.112 33.1333 168.485 33.9524C167.971 34.6035 167.665 35.3846 167.571 36.2941H174.004V36.2955Z" fill="white"/>
<path d="M71.0514 14.1359C71.0514 15.7982 70.5401 17.0496 69.5188 17.8899C68.5729 18.6653 67.2287 19.0537 65.4875 19.0537C64.6242 19.0537 63.8854 19.017 63.2669 18.9435V9.86078C64.0737 9.73367 64.9429 9.6687 65.8815 9.6687C67.5401 9.6687 68.7902 10.0204 69.6333 10.7237C70.5777 11.5189 71.0514 12.6558 71.0514 14.1359ZM69.4507 14.1769C69.4507 13.0993 69.1581 12.273 68.5729 11.6968C67.9877 11.122 67.1331 10.8339 66.0075 10.8339C65.5295 10.8339 65.1225 10.8649 64.785 10.9299V17.8348C64.9718 17.8631 65.3137 17.8758 65.8105 17.8758C66.9723 17.8758 67.8689 17.5608 68.5005 16.9309C69.1321 16.301 69.4507 15.383 69.4507 14.1769Z" fill="white"/>
<path d="M79.5385 15.5881C79.5385 16.612 79.2386 17.451 78.6389 18.1091C78.0102 18.7856 77.1773 19.1232 76.1373 19.1232C75.1349 19.1232 74.3367 18.7997 73.7414 18.1501C73.1474 17.5018 72.8505 16.6841 72.8505 15.6983C72.8505 14.6672 73.1561 13.8213 73.7703 13.1645C74.3845 12.5078 75.2102 12.1787 76.2502 12.1787C77.2526 12.1787 78.058 12.5021 78.6679 13.1504C79.2473 13.7803 79.5385 14.5938 79.5385 15.5881ZM77.9639 15.6361C77.9639 15.0217 77.8277 14.4949 77.5568 14.0557C77.2382 13.5247 76.7848 13.2591 76.1952 13.2591C75.5854 13.2591 75.1218 13.5247 74.8031 14.0557C74.5308 14.4949 74.3961 15.0302 74.3961 15.6629C74.3961 16.2773 74.5323 16.8041 74.8031 17.2433C75.132 17.7744 75.5897 18.0399 76.1807 18.0399C76.7601 18.0399 77.215 17.7701 77.5423 17.2292C77.8234 16.7815 77.9639 16.2505 77.9639 15.6361Z" fill="white"/>
<path d="M90.9182 12.3142L88.7816 18.972H87.391L86.506 16.0809C86.2814 15.3592 86.0989 14.6417 85.957 13.9299H85.9294C85.7976 14.6615 85.6151 15.3776 85.3804 16.0809L84.4403 18.972H83.0338L81.0247 12.3142H82.5847L83.3568 15.4793C83.5437 16.2278 83.6972 16.941 83.8204 17.6161H83.8479C83.9609 17.0597 84.1477 16.3507 84.4114 15.4934L85.3804 12.3156H86.6175L87.546 15.4256C87.7705 16.184 87.9531 16.9142 88.0936 17.6175H88.1356C88.2384 16.9325 88.3934 16.2024 88.5991 15.4256L89.4277 12.3156H90.9182V12.3142Z" fill="white"/>
<path d="M98.7882 18.9719H97.2701V15.1586C97.2701 13.9835 96.8124 13.396 95.894 13.396C95.4435 13.396 95.0799 13.557 94.7975 13.8804C94.5179 14.2038 94.3759 14.5852 94.3759 15.0216V18.9705H92.8579V14.2166C92.8579 13.6318 92.839 12.9977 92.8028 12.3113H94.1369L94.2079 13.3522H94.2499C94.4266 13.0288 94.6903 12.7618 95.0365 12.5486C95.4479 12.3 95.9085 12.1743 96.4126 12.1743C97.05 12.1743 97.5801 12.3749 98.0017 12.7774C98.526 13.2703 98.7882 14.0061 98.7882 14.9835V18.9719Z" fill="white"/>
<path d="M102.975 18.9719H101.458V9.25928H102.975V18.9719Z" fill="white"/>
<path d="M111.912 15.5881C111.912 16.612 111.612 17.451 111.013 18.1091C110.384 18.7856 109.55 19.1232 108.511 19.1232C107.507 19.1232 106.709 18.7997 106.115 18.1501C105.521 17.5018 105.224 16.6841 105.224 15.6983C105.224 14.6672 105.53 13.8213 106.144 13.1645C106.758 12.5078 107.584 12.1787 108.622 12.1787C109.626 12.1787 110.43 12.5021 111.042 13.1504C111.621 13.7803 111.912 14.5938 111.912 15.5881ZM110.336 15.6361C110.336 15.0217 110.2 14.4949 109.929 14.0557C109.612 13.5247 109.157 13.2591 108.569 13.2591C107.958 13.2591 107.494 13.5247 107.177 14.0557C106.904 14.4949 106.77 15.0302 106.77 15.6629C106.77 16.2773 106.906 16.8041 107.177 17.2433C107.506 17.7744 107.963 18.0399 108.554 18.0399C109.134 18.0399 109.587 17.7701 109.915 17.2292C110.197 16.7815 110.336 16.2505 110.336 15.6361Z" fill="white"/>
<path d="M119.259 18.972H117.896L117.783 18.2051H117.741C117.275 18.8167 116.61 19.1232 115.746 19.1232C115.102 19.1232 114.58 18.9212 114.188 18.5201C113.831 18.1557 113.653 17.7024 113.653 17.1643C113.653 16.3508 114.001 15.7307 114.701 15.3014C115.399 14.872 116.381 14.6616 117.645 14.6715V14.5472C117.645 13.6701 117.173 13.2323 116.227 13.2323C115.554 13.2323 114.96 13.3976 114.447 13.7252L114.139 12.7535C114.773 12.3708 115.557 12.1787 116.481 12.1787C118.265 12.1787 119.161 13.0967 119.161 14.9328V17.3846C119.161 18.0498 119.194 18.5794 119.259 18.972ZM117.683 16.6841V15.6573C116.009 15.629 115.171 16.0768 115.171 16.999C115.171 17.3464 115.267 17.6063 115.462 17.78C115.658 17.9538 115.907 18.0399 116.204 18.0399C116.537 18.0399 116.849 17.9368 117.133 17.732C117.418 17.5258 117.593 17.2645 117.658 16.9439C117.674 16.8719 117.683 16.7843 117.683 16.6841Z" fill="white"/>
<path d="M127.885 18.9719H126.538L126.467 17.9028H126.425C125.995 18.7163 125.262 19.123 124.232 19.123C123.409 19.123 122.724 18.8081 122.181 18.1782C121.638 17.5483 121.367 16.7305 121.367 15.7264C121.367 14.6488 121.661 13.7759 122.252 13.1093C122.824 12.4879 123.525 12.1772 124.359 12.1772C125.276 12.1772 125.918 12.478 126.283 13.0811H126.312V9.25928H127.832V17.1782C127.832 17.8265 127.849 18.4239 127.885 18.9719ZM126.312 16.1642V15.0541C126.312 14.862 126.298 14.7067 126.27 14.588C126.185 14.2321 126.001 13.9327 125.721 13.6912C125.439 13.4497 125.098 13.3282 124.706 13.3282C124.139 13.3282 123.696 13.5471 123.37 13.9864C123.047 14.4256 122.883 14.9863 122.883 15.6713C122.883 16.3294 123.038 16.8633 123.35 17.2743C123.679 17.7121 124.122 17.931 124.677 17.931C125.175 17.931 125.573 17.7488 125.876 17.383C126.169 17.0455 126.312 16.6387 126.312 16.1642Z" fill="white"/>
<path d="M140.869 15.5881C140.869 16.612 140.569 17.451 139.969 18.1091C139.34 18.7856 138.509 19.1232 137.467 19.1232C136.466 19.1232 135.668 18.7997 135.072 18.1501C134.478 17.5018 134.181 16.6841 134.181 15.6983C134.181 14.6672 134.486 13.8213 135.1 13.1645C135.715 12.5078 136.54 12.1787 137.582 12.1787C138.583 12.1787 139.39 12.5021 139.998 13.1504C140.577 13.7803 140.869 14.5938 140.869 15.5881ZM139.295 15.6361C139.295 15.0217 139.159 14.4949 138.888 14.0557C138.568 13.5247 138.116 13.2591 137.525 13.2591C136.917 13.2591 136.453 13.5247 136.133 14.0557C135.861 14.4949 135.726 15.0302 135.726 15.6629C135.726 16.2773 135.862 16.8041 136.133 17.2433C136.462 17.7744 136.92 18.0399 137.511 18.0399C138.09 18.0399 138.547 17.7701 138.874 17.2292C139.154 16.7815 139.295 16.2505 139.295 15.6361Z" fill="white"/>
<path d="M149.031 18.9719H147.515V15.1586C147.515 13.9835 147.057 13.396 146.137 13.396C145.686 13.396 145.323 13.557 145.042 13.8804C144.761 14.2038 144.62 14.5852 144.62 15.0216V18.9705H143.101V14.2166C143.101 13.6318 143.083 12.9977 143.047 12.3113H144.38L144.451 13.3522H144.493C144.671 13.0288 144.935 12.7618 145.279 12.5486C145.692 12.3 146.151 12.1743 146.657 12.1743C147.293 12.1743 147.823 12.3749 148.245 12.7774C148.77 13.2703 149.031 14.0061 149.031 14.9835V18.9719Z" fill="white"/>
<path d="M159.248 13.423H157.576V16.6573C157.576 17.4792 157.873 17.8902 158.461 17.8902C158.734 17.8902 158.96 17.8676 159.138 17.821L159.177 18.9438C158.877 19.054 158.483 19.1091 157.998 19.1091C157.398 19.1091 156.932 18.9311 156.594 18.5752C156.255 18.2193 156.087 17.6205 156.087 16.7801V13.423H155.089V12.3143H156.087V11.0941L157.575 10.6562V12.3129H159.246V13.423H159.248Z" fill="white"/>
<path d="M167.284 18.9719H165.765V15.1869C165.765 13.9934 165.307 13.396 164.39 13.396C163.686 13.396 163.205 13.742 162.942 14.4341C162.897 14.5795 162.871 14.7575 162.871 14.9665V18.9705H161.354V9.25928H162.871V13.2717H162.9C163.378 12.5415 164.063 12.1772 164.951 12.1772C165.579 12.1772 166.099 12.3777 166.512 12.7802C167.027 13.2816 167.284 14.0273 167.284 15.0131V18.9719Z" fill="white"/>
<path d="M175.574 15.328C175.574 15.5935 175.554 15.8167 175.518 15.9989H170.965C170.985 16.657 171.203 17.1584 171.624 17.5058C172.01 17.8165 172.506 17.9719 173.115 17.9719C173.788 17.9719 174.403 17.8674 174.956 17.6569L175.193 18.6851C174.546 18.9591 173.784 19.0961 172.902 19.0961C171.844 19.0961 171.011 18.7925 170.409 18.1851C169.803 17.5778 169.504 16.7629 169.504 15.7404C169.504 14.7362 169.783 13.9001 170.347 13.2335C170.935 12.5217 171.73 12.1658 172.734 12.1658C173.716 12.1658 174.462 12.5217 174.966 13.2335C175.373 13.7984 175.574 14.4975 175.574 15.328ZM174.126 14.9452C174.137 14.506 174.037 14.1275 173.832 13.8083C173.568 13.3973 173.167 13.1911 172.624 13.1911C172.128 13.1911 171.724 13.3917 171.416 13.7942C171.164 14.1148 171.014 14.4975 170.965 14.9452H174.126Z" fill="white"/>
</svg>
