<svg width="46" height="58" viewBox="0 0 46 58" fill="none" xmlns="http://www.w3.org/2000/svg">
<path d="M4.5 52L9.5 40.5L11.5 42L15.5 43L19 45L22.5 44.5L17 57H15.5L12 51L6 53L4.5 52Z" fill="#F2721B"/>
<path d="M42 52L37 40.5L35 42L31 43L27.5 45L24 44.5L29.5 57H31L34.5 51L40.5 53L42 52Z" fill="#F2721B"/>
<path d="M12 20L17.5 25L16 33L23 29L29.5 33L30 32L28 25L33 21L34 19.5L26.5 19L23 11.5L19.5 18.5L13 19L12 20Z" fill="#F2721B"/>
<path d="M45.2507 23.8145C46.4001 22.0538 46.1878 19.7629 44.7345 18.2434C44.094 17.5737 43.8263 16.6327 44.0182 15.7263C44.454 13.6692 43.4285 11.6096 41.5243 10.7178C40.6851 10.3247 40.0956 9.54395 39.9471 8.62931C39.6103 6.55377 37.91 5.00375 35.8123 4.85988C34.8879 4.79644 34.056 4.28146 33.5872 3.48215C32.5232 1.66863 30.3784 0.837488 28.3699 1.46099C27.4849 1.73581 26.5234 1.55592 25.7974 0.980109C24.1501 -0.326703 21.8495 -0.326703 20.2024 0.980109C19.4765 1.55614 18.5147 1.73581 17.6299 1.46099C15.6219 0.837375 13.4764 1.66852 12.4126 3.48215C11.9438 4.28146 11.112 4.79644 10.1876 4.85988C8.08981 5.00375 6.38957 6.55389 6.05268 8.62931C5.90428 9.54395 5.31465 10.3247 4.47557 10.7178C2.57154 11.6097 1.54601 13.6693 1.98157 15.7263C2.17358 16.6327 1.90579 17.5738 1.26541 18.2435C-0.187763 19.763 -0.400166 22.054 0.749186 23.8148C1.25567 24.5906 1.34595 25.5649 0.990588 26.4207C0.184366 28.3626 0.814096 30.5755 2.5217 31.8021C3.27434 32.3428 3.71036 33.2186 3.68816 34.1449C3.63797 36.2468 5.02453 38.0829 7.05997 38.6099C7.66082 38.7654 8.18282 39.1131 8.55687 39.5873L3.87564 50.8885C3.21962 52.4723 4.7044 54.1032 6.34166 53.6006L11.4667 52.0278C11.6165 51.9822 11.778 52.0491 11.8513 52.1872L14.3631 56.9233C15.1666 58.4383 17.3694 58.3313 18.0246 56.7494L22.9037 44.9703C22.9677 44.9681 23.0317 44.9681 23.0957 44.9703L27.9749 56.7494C28.6313 58.3338 30.834 58.4361 31.6365 56.9234L34.1482 52.1872C34.2214 52.049 34.3831 51.982 34.5328 52.0279L39.6578 53.6007C41.2959 54.1036 42.7796 52.4715 42.1239 50.8887L37.4426 39.5874C37.8166 39.1132 38.3386 38.7655 38.9395 38.61C40.9749 38.0831 42.3614 36.2471 42.3113 34.145C42.2891 33.2187 42.7252 32.3429 43.4779 31.8024C45.1856 30.5756 45.8151 28.3627 45.0089 26.4208C44.6541 25.5646 44.7443 24.5904 45.2507 23.8145ZM16.4551 56.0989C16.3485 56.3563 15.9944 56.372 15.8644 56.127L13.3526 51.3909C12.8983 50.5342 11.8956 50.1191 10.9686 50.4035L5.84356 51.9763C5.57769 52.0576 5.33923 51.7957 5.44571 51.5387L9.59883 41.5118C10.5359 42.7954 12.1023 43.5108 13.7514 43.3182C14.6717 43.2109 15.5839 43.5641 16.1917 44.2635C17.0734 45.2785 18.3157 45.8173 19.5832 45.8172C19.9841 45.8172 20.3874 45.7611 20.7828 45.6513L16.4551 56.0989ZM40.1566 51.9762L35.0316 50.4034C34.1046 50.119 33.1017 50.5342 32.6475 51.3908L30.1357 56.1269C30.006 56.3717 29.6514 56.3558 29.5449 56.0988L25.2182 45.6532C26.8629 46.1098 28.6481 45.5989 29.8084 44.2633C30.4161 43.5638 31.328 43.2103 32.2487 43.318C33.8994 43.5109 35.4648 42.7953 36.4013 41.5117L40.5546 51.5382C40.6613 51.7963 40.4215 52.0571 40.1566 51.9762ZM43.828 22.8859C43.0144 24.1323 42.8694 25.6972 43.4401 27.072C43.942 28.2808 43.5501 29.6583 42.487 30.422C41.278 31.2904 40.5775 32.6973 40.6131 34.1852C40.6444 35.4938 39.7811 36.6369 38.514 36.9648C37.3287 37.2717 36.3334 38.0431 35.7366 39.0863C35.735 39.0894 35.7333 39.0923 35.7317 39.0953C35.6052 39.3177 35.4955 39.5517 35.4072 39.7969C34.9638 41.0284 33.7468 41.7831 32.446 41.6306C30.9678 41.4578 29.502 42.0256 28.5259 43.1493C27.6675 44.1373 26.2596 44.4005 25.1021 43.7893C24.7084 43.5813 24.2915 43.437 23.8658 43.3535C23.8623 43.3527 23.8588 43.3519 23.8553 43.3513C23.2898 43.2417 22.7086 43.2418 22.1431 43.3517C22.1411 43.3522 22.1392 43.3526 22.1371 43.353C21.7104 43.4364 21.2927 43.581 20.8982 43.7893C19.7407 44.4006 18.3328 44.1373 17.4745 43.1493C16.6138 42.1586 15.373 41.6002 14.0781 41.6002C13.9043 41.6002 13.7293 41.6102 13.5543 41.6307C12.2547 41.7829 11.0364 41.0287 10.5929 39.7971C10.5046 39.552 10.3952 39.3183 10.2688 39.0961C10.2669 39.0924 10.2649 39.0891 10.263 39.0854C9.66601 38.0427 8.67106 37.2716 7.48614 36.9648C6.21897 36.6367 5.35588 35.4938 5.38715 34.1853C5.42272 32.6973 4.72219 31.2905 3.51325 30.422C2.45022 29.6584 2.05815 28.2808 2.5601 27.0718C3.13081 25.6971 2.98581 24.1322 2.17222 22.8858C1.45685 21.7898 1.58894 20.3635 2.49372 19.4177C3.52242 18.3419 3.95255 16.8303 3.6442 15.3742C3.37301 14.0937 4.01146 12.8115 5.19672 12.2562C6.54465 11.6248 7.49169 10.3707 7.73026 8.90141C7.93994 7.60933 8.99844 6.6444 10.3042 6.55491C11.7892 6.45307 13.1255 5.62577 13.8786 4.34173C14.541 3.21277 15.8768 2.69553 17.1264 3.08363C18.5479 3.52509 20.0928 3.23633 21.2589 2.31116C22.2841 1.49758 23.7164 1.49758 24.7419 2.31116C25.9079 3.23622 27.4525 3.5252 28.8743 3.08363C30.1244 2.69541 31.46 3.21288 32.1221 4.34173C32.8752 5.62566 34.2115 6.45295 35.6965 6.55491C37.0022 6.64451 38.0607 7.60944 38.2704 8.90141C38.509 10.3707 39.4561 11.6248 40.804 12.2564C41.9893 12.8115 42.6277 14.0937 42.3565 15.3742C42.0481 16.8303 42.4781 18.3419 43.507 19.4177C44.4113 20.3635 44.5434 21.7898 43.828 22.8859Z" fill="black"/>
<path d="M6.90853 21.7645C7.37377 21.8217 7.79824 21.4907 7.85544 21.0251C8.79364 13.3996 15.3045 7.6493 23 7.6493C30.6993 7.6493 37.2104 13.4026 38.1455 21.0322C38.1983 21.4628 38.5646 21.7785 38.9876 21.7785C39.0222 21.7785 39.057 21.7764 39.0921 21.7721C39.5578 21.715 39.889 21.2912 39.832 20.8255C38.7926 12.3451 31.5564 5.9502 23 5.9502C14.4476 5.9502 7.21189 12.3418 6.16903 20.8176C6.11182 21.2833 6.44283 21.7072 6.90853 21.7645Z" fill="black"/>
<path d="M39.0922 24.0449C38.6278 23.9882 38.2027 24.3191 38.1456 24.7848C37.2108 32.4148 30.6996 38.1685 23 38.1685C15.3039 38.1685 8.79308 32.4176 7.85522 24.7915C7.79801 24.3259 7.37434 23.995 6.9083 24.052C6.44272 24.1092 6.11148 24.5332 6.1688 24.9989C7.21122 33.4754 14.4469 39.8674 22.9999 39.8674C31.5567 39.8674 38.7929 33.4722 39.8319 24.9914C39.8891 24.5258 39.5579 24.102 39.0922 24.0449Z" fill="black"/>
<path d="M34.9964 19.4029C34.7804 18.7384 34.1898 18.2927 33.4914 18.2677L26.8304 18.0288L24.5447 11.7675C24.3051 11.1111 23.6988 10.687 23.0001 10.687C22.3014 10.687 21.6951 11.1111 21.4555 11.7675L19.1698 18.0288L12.5088 18.2677C11.8105 18.2927 11.2198 18.7384 11.0039 19.4029C10.7879 20.0674 11.0039 20.7752 11.5541 21.2059L16.8025 25.3145L14.9714 31.7235C14.7794 32.3953 15.0207 33.0948 15.5861 33.5056C16.1508 33.9159 16.8906 33.9299 17.4707 33.5394L23 29.8173L28.5294 33.5391C29.1088 33.9293 29.8486 33.9161 30.414 33.5054C30.9794 33.0947 31.2206 32.3952 31.0286 31.7232L29.1975 25.3143L34.4459 21.2057C34.9963 20.775 35.2123 20.0674 34.9964 19.4029ZM28.1213 23.9991C27.5917 24.4138 27.3689 25.0994 27.5538 25.7458L29.3538 32.046L23.9184 28.3873C23.6394 28.1995 23.3197 28.1056 23 28.1056C22.6803 28.1056 22.3606 28.1995 22.0817 28.3872L16.6462 32.0459L18.4462 25.7458C18.631 25.0992 18.4083 24.4138 17.8788 23.9991L12.7193 19.9602L19.2675 19.7253C19.9395 19.7011 20.5226 19.2774 20.7532 18.6458L23.0001 12.4908L25.247 18.6458C25.4777 19.2774 26.0607 19.7011 26.7327 19.7252L33.2807 19.9601L28.1213 23.9991Z" fill="black"/>
</svg>
