<svg width="58" height="58" viewBox="0 0 58 58" fill="none" xmlns="http://www.w3.org/2000/svg">
<g clip-path="url(#clip0)">
<rect x="24" y="7" width="10" height="11" fill="#F2721B"/>
<rect x="24" y="25" width="10" height="32" fill="#F2721B"/>
<path d="M11 26L16.5 15.5L21 16L25.5 18L27 19L23 25L20 31.5L18.5 38L17.5 40.5L15.5 38L13 35.5L11.5 37L7.5 39L11 26Z" fill="#F2721B"/>
<path d="M47 26L41.5 15.5L37 16L32.5 18L31 19L35 25L38 31.5L39.5 38L40.5 40.5L42.5 38L45 35.5L46.5 37L50.5 39L47 26Z" fill="#F2721B"/>
<path d="M57.105 11.7029H52.3826C52.5198 11.5104 52.6441 11.3082 52.753 11.0962C53.3778 9.87576 53.4623 8.4385 52.9849 7.15258L51.5538 3.30631C51.0768 2.02171 50.0745 0.988901 48.805 0.472938C47.5341 -0.0434671 46.0946 -0.00231402 44.8551 0.58622L33.5296 5.96489C32.9698 5.56486 32.2853 5.32857 31.5463 5.32857H26.4539C25.715 5.32857 25.0299 5.56531 24.4702 5.96533L13.1451 0.585777C11.9056 -0.00231397 10.4662 -0.0434671 9.19529 0.472938C7.92574 0.988901 6.92346 2.02171 6.44644 3.30587L5.01537 7.15302C4.53791 8.4385 4.62243 9.87576 5.24769 11.0962C5.3561 11.3082 5.48089 11.5108 5.61807 11.7029H0.895191C0.400911 11.7029 0 12.1033 0 12.5981V19.0423C0 19.5366 0.400911 19.9375 0.895191 19.9375C1.38947 19.9375 1.79038 19.5366 1.79038 19.0423V13.4928H8.00804C8.10761 13.5278 8.2085 13.5601 8.31072 13.5884L15.8258 15.6571C14.1558 18.2161 12.6827 20.9079 11.4215 23.697H1.79038V22.6226C1.79038 22.1283 1.38947 21.7279 0.895191 21.7279C0.400911 21.7279 0 22.1283 0 22.6226V24.5922C0 25.0865 0.400911 25.4874 0.895191 25.4874H4.08743V57.1784C4.08743 57.6731 4.48835 58.0736 4.98263 58.0736H53.0176C53.5119 58.0736 53.9128 57.6731 53.9128 57.1784V51.9807C53.9128 51.4864 53.5119 51.0855 53.0176 51.0855C52.5229 51.0855 52.1224 51.4864 52.1224 51.9807V56.2837H34.3704V26.0379C36.9059 30.8404 38.6224 36.0624 39.4123 41.4579C39.4645 41.815 39.7265 42.1057 40.0765 42.1951C40.15 42.2142 40.2243 42.223 40.2982 42.223C40.5748 42.223 40.8412 42.0947 41.0129 41.8668C42.2997 40.1596 43.4962 38.332 44.5764 36.424C46.3853 37.6559 48.1416 39.0294 49.8081 40.5163C50.0891 40.7667 50.4971 40.815 50.8285 40.6362C51.16 40.4579 51.3445 40.091 51.2896 39.7184C50.575 34.8433 49.2426 30.0492 47.354 25.4874H52.122V48.4C52.122 48.8947 52.5229 49.2952 53.0172 49.2952C53.5119 49.2952 53.9124 48.8947 53.9124 48.4V25.4874H57.105C57.5993 25.4874 57.9998 25.0865 57.9998 24.5922V12.5981C58.0002 12.1033 57.5998 11.7029 57.105 11.7029ZM45.6229 2.20314C46.4216 1.82435 47.3119 1.79869 48.131 2.13145C48.9488 2.46378 49.5683 3.10231 49.8758 3.93024L51.3064 7.77607C51.6144 8.60444 51.5618 9.49388 51.1591 10.2802C50.7568 11.0661 50.0661 11.6281 49.2147 11.8622L34.9656 15.785V11.4829C38.1684 9.52176 46.153 5.4768 48.1403 8.28185C48.4257 8.68498 48.9842 8.781 49.3877 8.49514C49.7913 8.20928 49.8869 7.6504 49.601 7.24727C48.0673 5.08209 44.8352 4.97677 39.9938 6.93486C37.9994 7.74111 36.1581 8.72525 34.9656 9.40803V8.74737C34.9656 8.26814 34.866 7.81147 34.6872 7.39684L45.6229 2.20314ZM26.4539 7.11851H31.5463C32.4446 7.11851 33.1752 7.84953 33.1752 8.74737V16.1465C33.1752 17.0448 32.4446 17.7754 31.5463 17.7754H26.4539C25.5556 17.7754 24.8251 17.0448 24.8251 16.1465V8.74737C24.8251 7.84908 25.5556 7.11851 26.4539 7.11851ZM24.9494 23.6966C25.8057 22.2739 26.7376 20.8951 27.7403 19.5658H30.2591C31.2622 20.8951 32.1941 22.2739 33.0499 23.6966H24.9494ZM6.84115 10.2802C6.43847 9.49388 6.38581 8.60444 6.69336 7.77651L8.12487 3.9298C8.43197 3.10231 9.05147 2.46378 9.86923 2.13145C10.6879 1.79869 11.5786 1.82435 12.3769 2.20314L23.313 7.39773C23.1343 7.81191 23.0347 8.26814 23.0347 8.74781V9.45937C21.8461 8.77525 19.9632 7.76191 17.918 6.93486C13.077 4.97677 9.84445 5.08209 8.31072 7.24727C8.02486 7.6504 8.12044 8.20928 8.52401 8.49514C8.92757 8.781 9.48602 8.68542 9.77143 8.28185C11.7773 5.45025 19.8933 9.59831 23.0347 11.5374V15.785L8.78597 11.8626C7.93415 11.6281 7.24339 11.0661 6.84115 10.2802ZM23.4365 17.7524C23.8821 18.5861 24.6627 19.2149 25.5977 19.4569C21.4111 25.298 18.5291 32.0095 17.1772 39.064C16.2263 37.6745 15.3373 36.2182 14.5235 34.7141C14.4045 34.4937 14.1992 34.3336 13.9562 34.272C13.7137 34.2105 13.4566 34.2535 13.2473 34.3902C11.7565 35.3624 10.2967 36.4288 8.88686 37.574C10.3387 29.9532 13.3385 22.6049 17.6401 16.1567L23.4365 17.7524ZM5.87782 25.4874H10.6463C8.75765 30.0492 7.42526 34.8429 6.71017 39.7184C6.65574 40.091 6.83983 40.4579 7.17126 40.6362C7.50314 40.8145 7.91069 40.7667 8.19168 40.5163C9.85816 39.0294 11.6145 37.6559 13.4239 36.424C14.504 38.332 15.7001 40.1592 16.9874 41.8668C17.1591 42.0947 17.4255 42.2235 17.702 42.2235C17.7759 42.2235 17.8503 42.2142 17.9237 42.1951C18.2738 42.1057 18.5353 41.815 18.5875 41.4579C19.3778 36.0624 21.0943 30.84 23.6294 26.0374V56.2837H5.87782V25.4874ZM25.4198 56.2837V25.4874H32.5804V56.2837H25.4198ZM44.7529 34.3902C44.5436 34.2535 44.2861 34.211 44.044 34.2725C43.8015 34.334 43.5958 34.4942 43.4767 34.7141C42.663 36.2182 41.774 37.6749 40.823 39.064C39.4712 32.0091 36.5891 25.298 32.4021 19.4574C33.3371 19.2158 34.1182 18.5865 34.5638 17.7524L40.3615 16.1563C44.6622 22.6058 47.662 29.9541 49.1138 37.574C47.7036 36.4288 46.2437 35.3624 44.7529 34.3902ZM56.2099 23.697H46.5791C45.318 20.9079 43.8449 18.2161 42.1753 15.6571L49.6895 13.5884C49.7917 13.5601 49.8926 13.5278 49.9922 13.4928H56.2099V23.697Z" fill="black"/>
</g>
<defs>
<clipPath id="clip0">
<rect width="58" height="58" fill="white"/>
</clipPath>
</defs>
</svg>
