<svg width="58" height="58" viewBox="0 0 58 58" fill="none" xmlns="http://www.w3.org/2000/svg">
<path d="M17 17L28 19L28.5 13L25.5 8L18 5L13 3.5V9.5L17 17Z" fill="#F2721B"/>
<path d="M40.5 21.5L29.5 23.5L29 17.5L32 12.5L39.5 9.5L44.5 8V14L40.5 21.5Z" fill="#F2721B"/>
<path d="M8.14016 46.2318L13.5938 48.958V55.0547C13.5938 55.6803 14.101 56.1875 14.7266 56.1875H26.7344C27.3599 56.1875 27.8672 55.6803 27.8672 55.0547V40.2658C27.8672 36.7952 25.2636 33.917 21.819 33.5717C21.8056 33.568 17.0272 32.8219 14.8103 30.605L12.2662 28.062C11.4103 27.206 10.2725 26.7344 9.0625 26.7344V17.6719C9.0625 15.1733 7.02978 13.1406 4.53125 13.1406C2.03272 13.1406 0 15.1733 0 17.6719V33.06C0 35.7966 0.76057 38.4738 2.19936 40.8019C3.63803 43.1299 5.69238 45.0075 8.14016 46.2318ZM2.26562 17.6719C2.26562 16.4226 3.28198 15.4062 4.53125 15.4062C5.78052 15.4062 6.79688 16.4226 6.79688 17.6719V27.3417C5.4153 28.1405 4.53125 29.63 4.53125 31.2656C4.53125 32.4755 5.00273 33.6132 5.85879 34.4692L11.6599 40.2715C12.1021 40.7138 12.8195 40.7141 13.2619 40.2716C13.7043 39.8292 13.7044 39.1121 13.2621 38.6696L7.46093 32.8672C7.03273 32.4391 6.79688 31.8703 6.79688 31.2656C6.79688 30.3068 7.40372 29.4481 8.30714 29.129C8.30748 29.1289 8.30782 29.1287 8.30816 29.1286H8.30827C9.08946 28.8517 10.0162 29.016 10.6644 29.6642L13.2085 32.2072C15.835 34.8336 21.5735 35.822 21.5849 35.8252C23.8748 36.0547 25.6016 37.9638 25.6016 40.2658V53.9219H15.8594V48.2578C15.8594 47.8287 15.6168 47.4364 15.2332 47.2446L9.15347 44.2053C4.90496 42.0806 2.26562 37.81 2.26562 33.06V17.6719Z" fill="black"/>
<path d="M27.8672 27.8672C27.8672 28.4928 28.3745 29 29 29C29.6255 29 30.1328 28.4928 30.1328 27.8672V24.4687H34.4692C40.8231 24.4687 45.9922 19.2996 45.9922 12.9458V7.47655C45.9922 7.01844 45.7161 6.6053 45.2929 6.42994C44.8696 6.25458 44.3823 6.35155 44.0584 6.67554C42.8114 7.92265 41.1535 8.60936 39.3902 8.60936C35.6015 8.60936 32.2343 10.4476 30.1328 13.2787V2.9453C30.1328 2.31965 29.6255 1.81249 29 1.81249C28.3745 1.81249 27.8672 2.31965 27.8672 2.9453V8.74757C25.7657 5.91644 22.3985 4.07811 18.6098 4.07811C16.8465 4.07811 15.1886 3.3914 13.9416 2.14429C13.6178 1.8203 13.1304 1.72322 12.7071 1.89869C12.2839 2.07417 12.0078 2.48719 12.0078 2.9453V8.41452C12.0078 14.7684 17.1769 19.9375 23.5308 19.9375H27.8672V27.8672ZM39.3902 10.875C40.9336 10.875 42.417 10.4833 43.7266 9.74682V12.9458C43.7266 18.0503 39.5738 22.2031 34.4692 22.2031H32.3984L38.7422 17.4453C39.2427 17.07 39.3441 16.3598 38.9688 15.8594C38.5934 15.3589 37.8834 15.2573 37.3828 15.6328L30.1328 21.0703V20.1323C30.1328 15.0279 34.2856 10.875 39.3902 10.875ZM14.2734 8.41452V5.21557C15.5831 5.95201 17.0664 6.34374 18.6098 6.34374C23.7144 6.34374 27.8672 10.4966 27.8672 15.6011V16.5391L20.6172 11.1016C20.1167 10.7262 19.4067 10.8276 19.0312 11.3281C18.6559 11.8286 18.7573 12.5387 19.2578 12.9141L25.6016 17.6719H23.5308C18.4262 17.6719 14.2734 13.5191 14.2734 8.41452Z" fill="black"/>
<path d="M51.9961 44.6328C52.6217 44.6328 53.1289 44.1256 53.1289 43.4999C53.1289 42.8743 52.6217 42.3671 51.9961 42.3671C51.3705 42.3671 50.8633 42.8743 50.8633 43.4999C50.8633 44.1256 51.3705 44.6328 51.9961 44.6328Z" fill="black"/>
<path d="M53.4688 13.1406C50.9702 13.1406 48.9375 15.1733 48.9375 17.6719V26.7344C47.7275 26.7344 46.5897 27.2059 45.734 28.0617L43.1895 30.6051C41.0216 32.7732 36.2006 33.5676 36.1892 33.5709C32.7364 33.9171 30.1328 36.7952 30.1328 40.2659V55.0547C30.1328 55.6803 30.6401 56.1875 31.2656 56.1875H43.2734C43.899 56.1875 44.4062 55.6803 44.4062 55.0547V48.958L48.1139 47.1045C48.6734 46.8247 48.9003 46.1443 48.6207 45.5846C48.341 45.0251 47.6608 44.7982 47.1009 45.0779L42.7668 47.2444C42.3832 47.4365 42.1406 47.8287 42.1406 48.2578V53.9219H32.3984V40.2658C32.3984 37.9638 34.1252 36.0547 36.4232 35.8243C36.4346 35.8211 42.0222 34.9764 44.7913 32.2072L47.3358 29.6638C47.9842 29.0154 48.9119 28.8521 49.6917 29.1285H49.6918C49.6922 29.1286 49.6925 29.1288 49.6929 29.1289C50.5963 29.4483 51.2031 30.3069 51.2031 31.2656C51.2031 31.8703 50.9673 32.4391 50.5392 32.8674L44.738 38.6697C44.2957 39.1122 44.2958 39.8293 44.7382 40.2717C45.1804 40.714 45.8978 40.7141 46.3402 40.2716L52.1413 34.4693C52.9973 33.6133 53.4688 32.4755 53.4688 31.2656C53.4688 29.63 52.5847 28.1405 51.2031 27.3417V17.6719C51.2031 16.4226 52.2195 15.4062 53.4688 15.4062C54.718 15.4062 55.7344 16.4226 55.7344 17.6719V33.06C55.7344 35.1326 55.2114 37.1902 54.2217 39.0104C53.9228 39.5601 54.1261 40.2479 54.6759 40.5468C55.2254 40.8455 55.9135 40.6423 56.2122 40.0926C57.3818 37.9414 58 35.5096 58 33.06V17.6719C58 15.1733 55.9673 13.1406 53.4688 13.1406Z" fill="black"/>
</svg>
