<svg width="58" height="58" viewBox="0 0 58 58" fill="none" xmlns="http://www.w3.org/2000/svg">
<circle cx="41" cy="40" r="16" fill="#F2721B"/>
<path d="M15.5 17L15 2.5L29 2V17.5L22.5 13.5L15.5 17Z" fill="#F2721B"/>
<path d="M6.95129 33.9802H7.85686C8.48252 33.9802 8.98968 33.473 8.98968 32.8474C8.98968 32.2219 8.48252 31.7146 7.85686 31.7146H6.95129C6.32564 31.7146 5.81848 32.2219 5.81848 32.8474C5.81848 33.473 6.32564 33.9802 6.95129 33.9802Z" fill="black"/>
<path d="M19.2625 33.9802C19.8882 33.9802 20.3953 33.473 20.3953 32.8474C20.3953 32.2219 19.8882 31.7146 19.2625 31.7146H12.3909C11.7652 31.7146 11.2581 32.2219 11.2581 32.8474C11.2581 33.473 11.7652 33.9802 12.3909 33.9802H19.2625Z" fill="black"/>
<path d="M6.95129 39.3574H19.2625C19.8881 39.3574 20.3953 38.8501 20.3953 38.2246C20.3953 37.5991 19.8881 37.0918 19.2625 37.0918H6.95129C6.32564 37.0918 5.81848 37.5991 5.81848 38.2246C5.81848 38.8501 6.32564 39.3574 6.95129 39.3574Z" fill="black"/>
<path d="M44.4878 23.4207V4.42125C44.4878 2.38933 42.833 0.736328 40.799 0.736328H3.68561C1.65334 0.736328 0 2.38944 0 4.42125V17.8879C0 18.5134 0.50716 19.0207 1.13281 19.0207C1.75846 19.0207 2.26562 18.5134 2.26562 17.8879V4.42125C2.26562 3.63859 2.90261 3.00195 3.68561 3.00195H14.1929V17.6953C14.1929 18.1059 14.415 18.4843 14.7735 18.6844C15.1319 18.8844 15.5706 18.8751 15.9201 18.6596L22.2423 14.7629L28.5645 18.6596C29.307 19.1172 30.2917 18.5633 30.2917 17.6952V3.00195H40.799C41.5837 3.00195 42.2222 3.63859 42.2222 4.42125V23.0897C41.7801 23.0553 41.3333 23.0374 40.8825 23.0374C31.4439 23.0374 23.765 30.7144 23.765 40.1505C23.765 41.1027 23.8446 42.0366 23.9949 42.947H3.68561C2.90261 42.947 2.26562 42.3088 2.26562 41.5245V28.0578C2.26562 27.4323 1.75846 26.925 1.13281 26.925C0.50716 26.925 0 27.4323 0 28.0578V41.5246C0 43.5582 1.65334 45.2127 3.68561 45.2127H24.5296C26.6936 52.1853 33.2059 57.2637 40.8825 57.2637C50.3211 57.2637 58 49.5867 58 40.1506C58 31.9506 52.2009 25.0804 44.4878 23.4207ZM28.0261 15.6665L22.8367 12.468C22.4723 12.2434 22.0124 12.2434 21.6479 12.468L16.4585 15.6665V3.00195H28.0261V15.6665ZM40.8825 54.998C32.6932 54.998 26.0307 48.3375 26.0307 40.1506C26.0307 31.9638 32.6932 25.3032 40.8825 25.3032C49.0719 25.3032 55.7344 31.9637 55.7344 40.1506C55.7344 48.3376 49.0719 54.998 40.8825 54.998Z" fill="black"/>
<path d="M42.9409 33.5895H38.6136L40.6332 31.5721C41.0758 31.1299 41.0763 30.4126 40.6342 29.9699C40.192 29.5272 39.4748 29.527 39.032 29.969L35.076 33.9207C34.6393 34.3536 34.6393 35.0909 35.076 35.5236L39.032 39.4755C39.2533 39.6964 39.5429 39.8068 39.8326 39.8068C40.1227 39.8068 40.4128 39.696 40.634 39.4745C41.0762 39.032 41.0758 38.3147 40.6332 37.8724L38.6136 35.8549H42.941C45.6822 35.8549 47.9124 38.0844 47.9124 40.8246C47.9124 43.5667 45.6822 45.7976 42.941 45.7976H32.7202C32.0946 45.7976 31.5874 46.3048 31.5874 46.9304C31.5874 47.5559 32.0946 48.0632 32.7202 48.0632H42.941C46.9316 48.0632 50.178 44.816 50.178 40.8246C50.1779 36.8352 46.9315 33.5895 42.9409 33.5895Z" fill="black"/>
<path d="M1.13281 24.1089C1.75846 24.1089 2.26562 23.5984 2.26562 22.9729C2.26562 22.3474 1.75846 21.8401 1.13281 21.8401C0.50716 21.8401 0 22.3474 0 22.9729V22.9794C0 23.6049 0.50716 24.1089 1.13281 24.1089Z" fill="black"/>
</svg>
