<svg width="32" height="28" viewBox="0 0 32 28" fill="none" xmlns="http://www.w3.org/2000/svg">
<path d="M10.0719 24.8601L8.01876 6.11886L0.537511 6.88886L0.340637 5.18386L9.5797 4.23511L11.6328 22.9351L29.436 20.7764L29.1969 17.1326L30.9547 15.5239L31.2922 22.2889L10.0719 24.8601Z" fill="#592F27"/>
<path d="M9.20002 6.35263C9.12971 6.35263 9.05939 6.29763 9.05939 6.22888L8.93283 5.04638L7.86408 5.15638C7.7797 5.17013 7.70939 5.10138 7.70939 5.03263C7.69533 4.95013 7.76564 4.88138 7.83595 4.88138L9.05939 4.75763C9.14377 4.74388 9.21408 4.81263 9.21408 4.88138L9.3547 6.20138C9.36877 6.28388 9.29845 6.35263 9.22814 6.35263C9.21408 6.35263 9.21408 6.35263 9.20002 6.35263Z" fill="white"/>
<path d="M19.7469 6.20142C15.7672 6.20142 12.5328 9.36391 12.5328 13.2552C12.5328 17.1464 15.7672 20.3089 19.7469 20.3089C23.7266 20.3089 26.961 17.1464 26.961 13.2552C26.961 9.36391 23.7407 6.20142 19.7469 6.20142ZM22.6438 8.84142C22.3344 8.84142 22.0813 8.59392 22.0813 8.29142C22.0813 7.98892 22.3344 7.74142 22.6438 7.74142C22.9532 7.74142 23.2063 7.98892 23.2063 8.29142C23.2063 8.59392 22.9532 8.84142 22.6438 8.84142ZM25.8641 12.9939C25.836 12.9939 25.8219 12.9939 25.7938 12.9939C25.5828 12.9939 25.4 12.8427 25.3578 12.6364C25.0485 10.6839 23.6703 9.51517 23.6563 9.50142C23.4735 9.35017 23.4453 9.07517 23.6 8.89642C23.7547 8.71767 24.036 8.69017 24.2188 8.84142C24.2891 8.89642 25.8641 10.2164 26.2297 12.4989C26.2578 12.7327 26.1032 12.9527 25.8641 12.9939Z" fill="#DB8144"/>
<path d="M16.4985 25.3551C16.4985 26.6888 15.3875 27.7751 14.0235 27.7751C12.6594 27.7751 11.5485 26.6888 11.5485 25.3551C11.5485 24.0213 12.6594 22.9351 14.0235 22.9351C15.4016 22.9351 16.4985 24.0213 16.4985 25.3551ZM14.0375 24.4751C13.5313 24.4751 13.1375 24.8738 13.1375 25.3551C13.1375 25.8501 13.5453 26.2351 14.0375 26.2351C14.5438 26.2351 14.9375 25.8363 14.9375 25.3551C14.9375 24.8601 14.5297 24.4751 14.0375 24.4751Z" fill="#592F27"/>
<path d="M30.7296 23.1963C30.7296 24.1725 29.9281 24.9563 28.9296 24.9563C27.9312 24.9563 27.1296 24.1725 27.1296 23.1963C27.1296 22.22 27.9312 21.4363 28.9296 21.4363C29.9281 21.4363 30.7296 22.2338 30.7296 23.1963ZM28.9437 22.5638C28.5781 22.5638 28.2828 22.8525 28.2828 23.21C28.2828 23.5675 28.5781 23.8563 28.9437 23.8563C29.3093 23.8563 29.6046 23.5675 29.6046 23.21C29.5906 22.8525 29.2953 22.5638 28.9437 22.5638Z" fill="#592F27"/>
<path d="M18.5516 5.44496C18.5516 5.44496 18.9735 4.66121 20.0001 3.79496C21.0266 2.92871 20.9001 1.55371 20.9001 1.55371C20.9001 1.55371 17.7079 2.41996 18.1438 5.10121C18.1438 5.10121 18.0032 4.63371 18.6501 3.98746C18.6501 3.98746 18.4813 5.00496 18.5516 5.44496Z" fill="#728153"/>
<path d="M17.8204 5.28006C17.8204 5.28006 17.3001 3.03881 15.2047 2.35131C13.0954 1.66381 12.6594 0.935059 12.6594 0.935059C12.6594 0.935059 12.8563 4.75756 17.4266 5.92631C17.4266 5.92631 17.3985 5.33506 17.0891 4.82631C17.0891 4.85381 17.0891 4.68881 17.8204 5.28006Z" fill="#728153"/>
</svg>
