<svg width="196" height="57" viewBox="0 0 196 57" fill="none" xmlns="http://www.w3.org/2000/svg">
<path d="M188.767 56.4934H7.94739C3.97117 56.4934 0.7146 53.3139 0.7146 49.4317V7.06164C0.7146 3.17948 3.97117 -3.75717e-05 7.94739 -3.75717e-05H188.767C192.743 -3.75717e-05 196 3.17948 196 7.06164V49.4317C196 53.3139 192.743 56.4934 188.767 56.4934Z" fill="black"/>
<path d="M188.767 1.13159C192.116 1.13159 194.841 3.79208 194.841 7.06164V49.4317C194.841 52.7013 192.116 55.3618 188.767 55.3618H7.94739C4.59861 55.3618 1.87365 52.7013 1.87365 49.4317V7.06164C1.87365 3.79208 4.59861 1.13159 7.94739 1.13159H188.767ZM188.767 -3.75717e-05H7.94739C3.97117 -3.75717e-05 0.7146 3.17948 0.7146 7.06164V49.4317C0.7146 53.3139 3.97117 56.4934 7.94739 56.4934H188.767C192.743 56.4934 196 53.3139 196 49.4317V7.06164C196 3.17948 192.743 -3.75717e-05 188.767 -3.75717e-05Z" fill="#A6A6A6"/>
<path d="M69.3068 14.4675C69.3068 15.6468 68.9452 16.5913 68.2328 17.2957C67.4136 18.1307 66.3468 18.5509 65.0395 18.5509C63.79 18.5509 62.7232 18.1237 61.848 17.2816C60.971 16.4271 60.5334 15.3784 60.5334 14.1232C60.5334 12.868 60.971 11.8194 61.848 10.972C62.7232 10.1228 63.79 9.69556 65.0395 9.69556C65.6615 9.69556 66.2546 9.8209 66.8206 10.0539C67.3847 10.2887 67.844 10.6065 68.1767 10.9984L67.4209 11.7434C66.8404 11.0744 66.0503 10.7442 65.0395 10.7442C64.1281 10.7442 63.338 11.0549 62.6671 11.6817C62.0035 12.3101 61.6708 13.124 61.6708 14.1232C61.6708 15.1225 62.0035 15.9434 62.6671 16.5719C63.338 17.1915 64.1281 17.5093 65.0395 17.5093C66.0069 17.5093 66.8206 17.1915 67.4625 16.5648C67.8856 16.1499 68.1261 15.5779 68.1894 14.8471H65.0395V13.8266H69.2417C69.2924 14.0473 69.3068 14.2609 69.3068 14.4675Z" fill="white" stroke="white" stroke-width="0.16" stroke-miterlimit="10"/>
<path d="M75.9736 10.9297H72.0263V13.6132H75.5848V14.6336H72.0263V17.317H75.9736V18.3568H70.9088V9.88989H75.9736V10.9297Z" fill="white" stroke="white" stroke-width="0.16" stroke-miterlimit="10"/>
<path d="M80.6785 18.3568H79.5611V10.9297H77.1399V9.88989H83.1015V10.9297H80.6785V18.3568Z" fill="white" stroke="white" stroke-width="0.16" stroke-miterlimit="10"/>
<path d="M87.4159 18.3568V9.88989H88.5316V18.3568H87.4159Z" fill="white" stroke="white" stroke-width="0.16" stroke-miterlimit="10"/>
<path d="M93.4769 18.3568H92.3685V10.9297H89.9383V9.88989H95.9071V10.9297H93.4769V18.3568Z" fill="white" stroke="white" stroke-width="0.16" stroke-miterlimit="10"/>
<path d="M107.194 17.2674C106.339 18.1237 105.279 18.5509 104.015 18.5509C102.744 18.5509 101.684 18.1237 100.829 17.2674C99.9756 16.413 99.5507 15.3643 99.5507 14.1232C99.5507 12.8821 99.9756 11.8335 100.829 10.979C101.684 10.1228 102.744 9.69556 104.015 9.69556C105.272 9.69556 106.331 10.1228 107.187 10.9861C108.047 11.8476 108.472 12.8892 108.472 14.1232C108.472 15.3643 108.047 16.413 107.194 17.2674ZM101.655 16.5577C102.299 17.1915 103.082 17.5093 104.015 17.5093C104.941 17.5093 105.731 17.1915 106.368 16.5577C107.01 15.924 107.335 15.1101 107.335 14.1232C107.335 13.1364 107.01 12.3225 106.368 11.6887C105.731 11.0549 104.941 10.7372 104.015 10.7372C103.082 10.7372 102.299 11.0549 101.655 11.6887C101.014 12.3225 100.688 13.1364 100.688 14.1232C100.688 15.1101 101.014 15.924 101.655 16.5577Z" fill="white" stroke="white" stroke-width="0.16" stroke-miterlimit="10"/>
<path d="M110.04 18.3568V9.88989H111.396L115.613 16.4749H115.662L115.613 14.8472V9.88989H116.729V18.3568H115.564L111.148 11.447H111.1L111.148 13.0818V18.3568H110.04Z" fill="white" stroke="white" stroke-width="0.16" stroke-miterlimit="10"/>
<path d="M99.2759 30.7219C95.8783 30.7219 93.1027 33.2464 93.1027 36.7296C93.1027 40.1845 95.8783 42.7355 99.2759 42.7355C102.681 42.7355 105.456 40.1845 105.456 36.7296C105.456 33.2464 102.681 30.7219 99.2759 30.7219ZM99.2759 40.3699C97.4116 40.3699 95.8077 38.8675 95.8077 36.7296C95.8077 34.5634 97.4116 33.0875 99.2759 33.0875C101.14 33.0875 102.751 34.5634 102.751 36.7296C102.751 38.8675 101.14 40.3699 99.2759 40.3699ZM85.8066 30.7219C82.4018 30.7219 79.6334 33.2464 79.6334 36.7296C79.6334 40.1845 82.4018 42.7355 85.8066 42.7355C89.2096 42.7355 91.9798 40.1845 91.9798 36.7296C91.9798 33.2464 89.2096 30.7219 85.8066 30.7219ZM85.8066 40.3699C83.9405 40.3699 82.3312 38.8675 82.3312 36.7296C82.3312 34.5634 83.9405 33.0875 85.8066 33.0875C87.6708 33.0875 89.2747 34.5634 89.2747 36.7296C89.2747 38.8675 87.6708 40.3699 85.8066 40.3699ZM69.7787 32.5632V35.116H76.0224C75.8398 36.5425 75.3516 37.5911 74.603 38.322C73.6917 39.2047 72.2722 40.1845 69.7787 40.1845C65.9363 40.1845 62.9275 37.1568 62.9275 33.4053C62.9275 29.6538 65.9363 26.6261 69.7787 26.6261C71.8563 26.6261 73.368 27.4188 74.4837 28.4462L76.3262 26.6473C74.7657 25.1926 72.6899 24.0751 69.7787 24.0751C64.5096 24.0751 60.0814 28.2609 60.0814 33.4053C60.0814 38.5497 64.5096 42.7355 69.7787 42.7355C72.6266 42.7355 74.7657 41.8246 76.4474 40.1157C78.1706 38.4332 78.7076 36.0676 78.7076 34.1574C78.7076 33.5642 78.657 33.0187 78.5666 32.5632H69.7787ZM135.319 34.5422C134.811 33.1988 133.243 30.7219 130.05 30.7219C126.885 30.7219 124.251 33.1564 124.251 36.7296C124.251 40.0945 126.858 42.7355 130.353 42.7355C133.18 42.7355 134.811 41.0531 135.481 40.0733L133.384 38.7086C132.684 39.7079 131.731 40.3699 130.353 40.3699C128.985 40.3699 128.003 39.7573 127.373 38.5497L135.603 35.2255L135.319 34.5422ZM126.929 36.5425C126.858 34.2262 128.771 33.0399 130.142 33.0399C131.216 33.0399 132.127 33.5642 132.431 34.3145L126.929 36.5425ZM120.24 42.3701H122.945V24.7159H120.24V42.3701ZM115.81 32.0601H115.72C115.112 31.3574 113.953 30.7219 112.485 30.7219C109.404 30.7219 106.586 33.3629 106.586 36.749C106.586 40.1157 109.404 42.7355 112.485 42.7355C113.953 42.7355 115.112 42.0947 115.72 41.3709H115.81V42.2324C115.81 44.5292 114.553 45.7632 112.526 45.7632C110.874 45.7632 109.848 44.5981 109.425 43.6183L107.073 44.5769C107.751 46.1693 109.546 48.1289 112.526 48.1289C115.698 48.1289 118.374 46.307 118.374 41.874V31.0873H115.81V32.0601ZM112.716 40.3699C110.852 40.3699 109.291 38.8463 109.291 36.749C109.291 34.6323 110.852 33.0875 112.716 33.0875C114.553 33.0875 116.002 34.6323 116.002 36.749C116.002 38.8463 114.553 40.3699 112.716 40.3699ZM147.983 24.7159H141.514V42.3701H144.211V35.6809H147.983C150.979 35.6809 153.918 33.5642 153.918 30.1975C153.918 26.8326 150.972 24.7159 147.983 24.7159ZM148.054 33.2252H144.211V27.1716H148.054C150.068 27.1716 151.218 28.8046 151.218 30.1975C151.218 31.564 150.068 33.2252 148.054 33.2252ZM164.731 30.6883C162.782 30.6883 160.755 31.5287 159.921 33.3912L162.315 34.371C162.83 33.3912 163.778 33.0734 164.78 33.0734C166.179 33.0734 167.599 33.8943 167.62 35.3437V35.5291C167.132 35.2537 166.087 34.8459 164.801 34.8459C162.223 34.8459 159.596 36.2317 159.596 38.8181C159.596 41.1837 161.708 42.7073 164.082 42.7073C165.897 42.7073 166.899 41.9076 167.528 40.9772H167.62V42.3419H170.226V35.5697C170.226 32.4396 167.832 30.6883 164.731 30.6883ZM164.405 40.3628C163.523 40.3628 162.293 39.9356 162.293 38.8675C162.293 37.5011 163.827 36.9767 165.154 36.9767C166.342 36.9767 166.899 37.2327 167.62 37.5699C167.409 39.2047 165.968 40.3628 164.405 40.3628ZM179.719 31.0749L176.618 38.728H176.526L173.32 31.0749H170.41L175.227 41.7699L172.479 47.7211H175.298L182.721 31.0749H179.719ZM155.401 42.3701H158.106V24.7159H155.401V42.3701Z" fill="white"/>
<path d="M15.8095 10.6471C15.3845 11.0814 15.1386 11.7576 15.1386 12.6332V43.8671C15.1386 44.7427 15.3845 45.4189 15.8095 45.8532L15.9143 45.9485L33.8408 28.4532V28.0401L15.9143 10.5447L15.8095 10.6471Z" fill="url(#paint0_linear)"/>
<path d="M39.8096 34.2878L33.8408 28.4531V28.04L39.8169 22.2053L39.9507 22.2812L47.0279 26.2128C49.0477 27.3286 49.0477 29.1646 47.0279 30.2874L39.9507 34.2119L39.8096 34.2878Z" fill="url(#paint1_linear)"/>
<path d="M39.9507 34.2119L33.8408 28.2466L15.8094 45.8531C16.4803 46.5416 17.5742 46.6246 18.8183 45.9361L39.9507 34.2119Z" fill="url(#paint2_linear)"/>
<path d="M39.9507 22.2815L18.8183 10.5573C17.5742 9.87587 16.4803 9.95884 15.8094 10.6474L33.8408 28.2468L39.9507 22.2815Z" fill="url(#paint3_linear)"/>
<defs>
<linearGradient id="paint0_linear" x1="32.2492" y1="44.1923" x2="8.55355" y2="19.9226" gradientUnits="userSpaceOnUse">
<stop stop-color="#00A0FF"/>
<stop offset="0.0066" stop-color="#00A1FF"/>
<stop offset="0.2601" stop-color="#00BEFF"/>
<stop offset="0.5122" stop-color="#00D2FF"/>
<stop offset="0.7604" stop-color="#00DFFF"/>
<stop offset="1" stop-color="#00E3FF"/>
</linearGradient>
<linearGradient id="paint1_linear" x1="49.658" y1="28.2446" x2="14.6558" y2="28.2446" gradientUnits="userSpaceOnUse">
<stop stop-color="#FFE000"/>
<stop offset="0.4087" stop-color="#FFBD00"/>
<stop offset="0.7754" stop-color="#FFA500"/>
<stop offset="1" stop-color="#FF9C00"/>
</linearGradient>
<linearGradient id="paint2_linear" x1="36.6283" y1="25.0037" x2="4.49516" y2="-7.90808" gradientUnits="userSpaceOnUse">
<stop stop-color="#FF3A44"/>
<stop offset="1" stop-color="#C31162"/>
</linearGradient>
<linearGradient id="paint3_linear" x1="11.2706" y1="56.2447" x2="25.6195" y2="41.5482" gradientUnits="userSpaceOnUse">
<stop stop-color="#32A071"/>
<stop offset="0.0685" stop-color="#2DA771"/>
<stop offset="0.4762" stop-color="#15CF74"/>
<stop offset="0.8009" stop-color="#06E775"/>
<stop offset="1" stop-color="#00F076"/>
</linearGradient>
</defs>
</svg>
