<svg width="30" height="27" viewBox="0 0 30 27" fill="none" xmlns="http://www.w3.org/2000/svg">
<path d="M15 26.831C14.5729 26.831 14.1611 26.6763 13.8402 26.3952C12.6283 25.3355 11.4599 24.3396 10.429 23.4612L10.4237 23.4566C7.40134 20.881 4.7914 18.6567 2.97546 16.4656C0.945509 14.0161 0 11.6937 0 9.15651C0 6.69145 0.845259 4.41728 2.37991 2.75262C3.93287 1.06828 6.06376 0.140625 8.38072 0.140625C10.1124 0.140625 11.6984 0.68811 13.0943 1.76775C13.7988 2.31271 14.4374 2.97968 15 3.75764C15.5628 2.97968 16.2011 2.31271 16.9059 1.76775C18.3018 0.68811 19.8877 0.140625 21.6194 0.140625C23.9362 0.140625 26.0673 1.06828 27.6203 2.75262C29.1549 4.41728 29.9999 6.69145 29.9999 9.15651C29.9999 11.6937 29.0547 14.0161 27.0247 16.4654C25.2088 18.6567 22.5991 20.8808 19.5771 23.4561C18.5444 24.336 17.3742 25.3334 16.1595 26.3957C15.8388 26.6763 15.4268 26.831 15 26.831ZM8.38072 1.89798C6.56043 1.89798 4.88822 2.62445 3.67172 3.94373C2.43713 5.28291 1.75712 7.13411 1.75712 9.15651C1.75712 11.2904 2.5502 13.1988 4.32838 15.3443C6.04705 17.4182 8.60342 19.5967 11.5633 22.1192L11.5688 22.1238C12.6036 23.0057 13.7766 24.0054 14.9975 25.073C16.2256 24.0034 17.4005 23.002 18.4373 22.1188C21.397 19.5963 23.9531 17.4182 25.6718 15.3443C27.4497 13.1988 28.2428 11.2904 28.2428 9.15651C28.2428 7.13411 27.5628 5.28291 26.3282 3.94373C25.112 2.62445 23.4395 1.89798 21.6194 1.89798C20.286 1.89798 19.0617 2.32187 17.9807 3.15775C17.0173 3.90298 16.3463 4.84506 15.9528 5.50424C15.7505 5.84322 15.3943 6.04555 15 6.04555C14.6056 6.04555 14.2495 5.84322 14.0471 5.50424C13.6539 4.84506 12.9828 3.90298 12.0192 3.15775C10.9382 2.32187 9.71396 1.89798 8.38072 1.89798Z" fill="#F2721B"/>
</svg>
