<svg width="31" height="30" viewBox="0 0 31 30" fill="none" xmlns="http://www.w3.org/2000/svg">
<ellipse cx="15.5" cy="15" rx="15.5" ry="15" fill="url(#paint0_linear)"/>
<path d="M20.6001 9H11.175C10.1108 9 9.30005 9.78462 9.30005 10.8144V19.9356C9.30005 20.9654 10.1108 21.75 11.175 21.75H20.6001C21.6643 21.75 22.475 20.9654 22.475 19.9356V10.8144C22.475 9.78462 21.6643 9 20.6001 9ZM15.8875 19.2C18.0665 19.2 19.8401 17.5327 19.8401 15.5221C19.8401 15.1788 19.7894 14.7865 19.688 14.4923H20.8028V19.6904C20.8028 19.9356 20.6001 20.1808 20.2961 20.1808H11.479C11.2256 20.1808 10.9723 19.9846 10.9723 19.6904V14.4433H12.1377C12.0364 14.7865 11.9857 15.1298 11.9857 15.4731C11.9351 17.5327 13.7086 19.2 15.8875 19.2ZM15.8875 17.7288C14.4687 17.7288 13.3539 16.65 13.3539 15.326C13.3539 14.0019 14.4687 12.9231 15.8875 12.9231C17.3064 12.9231 18.4212 14.0019 18.4212 15.326C18.4212 16.699 17.3064 17.7288 15.8875 17.7288ZM20.7522 12.4817C20.7522 12.776 20.4988 13.0212 20.1948 13.0212H18.7759C18.4719 13.0212 18.2185 12.776 18.2185 12.4817V11.1577C18.2185 10.8635 18.4719 10.6183 18.7759 10.6183H20.1948C20.4988 10.6183 20.7522 10.8635 20.7522 11.1577V12.4817Z" fill="white"/>
<defs>
<linearGradient id="paint0_linear" x1="6.5875" y1="26.625" x2="26.4277" y2="5.34977" gradientUnits="userSpaceOnUse">
<stop stop-color="#EEA054"/>
<stop offset="0.502762" stop-color="#D64763"/>
<stop offset="1" stop-color="#B62A99"/>
</linearGradient>
</defs>
</svg>
