<svg width="30" height="30" viewBox="0 0 30 30" fill="none" xmlns="http://www.w3.org/2000/svg">
<path d="M27 24C27 26.2091 21.6274 28.5 15 28.5C8.37258 28.5 3 26.2091 3 24C3 22.0766 7.07252 20.4703 12.5 20.0869C12.9384 20.7729 14.1427 24 15 24C15.8573 24 17 20.5 17.5 20.0869C22.9275 20.4703 27 22.0766 27 24Z" fill="#F2721B"/>
<path d="M12 9.5V8L12.5 6.5L14 6H16L17.5 7.5L18 9L17 11L15 11.5L13.5 11L12 9.5Z" fill="#F2721B"/>
<path d="M18.8036 19.421C18.8577 19.3329 18.9119 19.2464 18.966 19.1567C21.401 15.1254 22.6263 11.599 22.6087 8.67659C22.5979 6.66597 21.7917 4.74136 20.3662 3.32332C18.9408 1.90528 17.012 1.10911 15.0013 1.10876C12.9907 1.10842 11.0616 1.90395 9.63571 3.3215C8.20978 4.73906 7.40292 6.66339 7.39142 8.67402C7.37361 11.599 8.59916 15.1259 11.0341 19.1567C11.0882 19.2464 11.1424 19.3329 11.1965 19.421C6.07025 20.0546 2.67181 21.8867 2.67181 24.0619C2.67181 26.7928 8.08588 28.932 14.9999 28.932C21.914 28.932 27.3281 26.7928 27.3281 24.0619C27.3281 21.8867 23.9296 20.0546 18.8036 19.421ZM8.21174 8.67659C8.20665 7.78178 8.37852 6.8948 8.71747 6.06665C9.05642 5.2385 9.55575 4.48554 10.1867 3.85107C10.8177 3.2166 11.568 2.71314 12.3942 2.36964C13.2205 2.02615 14.1065 1.84941 15.0014 1.84958C15.8962 1.84975 16.7821 2.02683 17.6083 2.37063C18.4344 2.71444 19.1844 3.21818 19.8152 3.8529C20.446 4.48761 20.945 5.24076 21.2836 6.06904C21.6223 6.89731 21.7938 7.78436 21.7884 8.67917C21.8235 14.5053 16.3767 21.691 14.9999 23.4141C13.6232 21.691 8.17611 14.505 8.21174 8.67659ZM14.9999 28.1117C8.11611 28.1117 3.49213 26.0175 3.49213 24.0619C3.49213 22.3275 6.9208 20.7139 11.6798 20.1905C12.6002 21.6276 13.6045 23.0092 14.6875 24.3282C14.726 24.3735 14.7738 24.4099 14.8278 24.4349C14.8817 24.4599 14.9405 24.4728 14.9999 24.4728C15.0594 24.4728 15.1181 24.4599 15.1721 24.4349C15.226 24.4099 15.2739 24.3735 15.3124 24.3282C16.3954 23.0092 17.3998 21.6276 18.3203 20.1905C23.0781 20.7139 26.508 22.3266 26.508 24.0619C26.5077 26.0175 21.8838 28.1117 14.9999 28.1117Z" fill="black"/>
<path d="M11.6466 25.7361C9.82647 25.5031 8.36538 25.093 7.53382 24.5818C7.48792 24.5525 7.43665 24.5326 7.38298 24.5232C7.32932 24.5139 7.27434 24.5154 7.22125 24.5276C7.16816 24.5398 7.11803 24.5624 7.07377 24.5941C7.02952 24.6259 6.99204 24.6661 6.96351 24.7125C6.93498 24.7589 6.91598 24.8105 6.90761 24.8644C6.89924 24.9182 6.90168 24.9731 6.91478 25.026C6.92787 25.0789 6.95137 25.1286 6.98389 25.1723C7.01642 25.216 7.05732 25.2528 7.10421 25.2805C8.03303 25.8514 9.60944 26.3023 11.5426 26.5496C11.56 26.5519 11.5775 26.553 11.5951 26.5529C11.699 26.5524 11.7989 26.5124 11.8745 26.4411C11.9502 26.3697 11.9959 26.2723 12.0024 26.1686C12.009 26.0648 11.9759 25.9624 11.9098 25.8822C11.8438 25.8019 11.7497 25.7497 11.6466 25.7361Z" fill="#431D03"/>
<path d="M15.6889 25.932C15.1173 25.9451 14.5219 25.9421 13.9409 25.9207C13.8871 25.9188 13.8333 25.9274 13.7828 25.9462C13.7323 25.965 13.686 25.9935 13.6465 26.0302C13.607 26.0669 13.5751 26.111 13.5527 26.16C13.5302 26.209 13.5176 26.2619 13.5157 26.3158C13.5137 26.3696 13.5223 26.4234 13.5411 26.4739C13.5599 26.5244 13.5884 26.5707 13.6251 26.6102C13.6618 26.6497 13.7059 26.6816 13.7549 26.704C13.8039 26.7265 13.8568 26.7391 13.9107 26.7411C14.2712 26.7542 14.6373 26.761 15.0001 26.761C15.2387 26.761 15.4747 26.7582 15.7081 26.7525C15.8169 26.75 15.9202 26.7044 15.9953 26.6257C16.0704 26.547 16.1112 26.4418 16.1087 26.333C16.1081 26.2789 16.0967 26.2255 16.0752 26.1758C16.0537 26.1262 16.0224 26.0814 15.9833 26.044C15.9442 26.0067 15.898 25.9775 15.8474 25.9583C15.7969 25.939 15.743 25.9301 15.6889 25.932Z" fill="#431D03"/>
<path d="M18.4631 8.6765C18.463 7.99148 18.2598 7.32187 17.8791 6.75234C17.4985 6.18281 16.9575 5.73895 16.3246 5.47687C15.6917 5.2148 14.9953 5.14629 14.3234 5.28001C13.6516 5.41372 13.0345 5.74366 12.5501 6.22809C12.0658 6.71253 11.736 7.3297 11.6024 8.00157C11.4688 8.67345 11.5375 9.36984 11.7997 10.0027C12.0619 10.6356 12.5059 11.1765 13.0755 11.557C13.6451 11.9375 14.3147 12.1406 14.9997 12.1406C15.9181 12.1394 16.7984 11.7741 17.4477 11.1247C18.097 10.4753 18.4622 9.59482 18.4631 8.6765ZM12.3565 8.6765C12.3566 8.15373 12.5117 7.64273 12.8022 7.2081C13.0927 6.77348 13.5055 6.43476 13.9885 6.23477C14.4715 6.03477 15.003 5.98249 15.5157 6.08454C16.0284 6.18658 16.4994 6.43837 16.869 6.80806C17.2386 7.17774 17.4903 7.64873 17.5923 8.16147C17.6942 8.6742 17.6418 9.20565 17.4418 9.68862C17.2417 10.1716 16.9029 10.5844 16.4682 10.8748C16.0335 11.1652 15.5225 11.3203 14.9997 11.3203C14.2989 11.3195 13.6269 11.0407 13.1313 10.5451C12.6358 10.0494 12.3571 9.3774 12.3565 8.6765Z" fill="black"/>
</svg>
