<svg width="90" height="55" viewBox="0 0 90 55" fill="none" xmlns="http://www.w3.org/2000/svg">
<path d="M2.1797 26.6485C2.05314 26.6485 1.92657 26.5798 1.82814 26.4973L1.30782 26.0298C1.20939 25.9335 1.15314 25.8098 1.15314 25.6585V8.75977C1.15314 8.60852 1.22345 8.47103 1.30782 8.38853L1.82814 7.92103C1.92657 7.82478 2.05314 7.76978 2.1797 7.76978H6.24376C6.37032 7.76978 6.49689 7.83853 6.59532 7.92103L7.11564 8.38853C7.21407 8.48478 7.2422 8.60852 7.2422 8.75977V12.5135H5.31564V9.87353C5.31564 9.74978 5.2172 9.65352 5.09064 9.65352H3.31876C3.1922 9.65352 3.09376 9.74978 3.09376 9.87353V24.5448C3.09376 24.6685 3.1922 24.7648 3.31876 24.7648H5.09064C5.2172 24.7648 5.31564 24.6685 5.31564 24.5448V22.0285H7.2422V25.6448C7.2422 25.796 7.21407 25.9335 7.11564 26.016L6.59532 26.4835C6.49689 26.5798 6.37032 26.6348 6.24376 26.6348H2.1797V26.6485Z" fill="#DB8144"/>
<path d="M15.7781 9.63863H13.5281C13.4016 9.63863 13.3031 9.73488 13.3031 9.85863V26.6474H11.3766V9.85863C11.3766 9.73488 11.2781 9.63863 11.1516 9.63863H8.84534V7.75488H15.7641V9.63863H15.7781Z" fill="#DB8144"/>
<path d="M17.5078 8.56613L18.211 7.87863C18.2813 7.78238 18.4078 7.75488 18.5063 7.75488H22.3032C22.4297 7.75488 22.5282 7.78238 22.6266 7.87863L23.3297 8.56613C23.4 8.66238 23.4563 8.75863 23.4563 8.85488V26.6474H21.5297V17.0086H19.3078V26.6474H17.3813V8.85488C17.3813 8.75863 17.4235 8.66238 17.5078 8.56613ZM21.5438 15.1249V10.0511C21.5438 9.83113 21.3469 9.63863 21.1219 9.63863H19.7438C19.5188 9.63863 19.3219 9.83113 19.3219 10.0511V15.1249H21.5438Z" fill="#DB8144"/>
<path d="M31.1625 7.75488V26.6199H29.236V17.5449C29.236 17.4211 29.1375 17.3249 29.011 17.3249H27.2391C27.1125 17.3249 27.0141 17.4211 27.0141 17.5449V26.6474H25.0875V7.78238H27.0141V15.2074C27.0141 15.3311 27.1125 15.4274 27.2391 15.4274H29.011C29.1375 15.4274 29.236 15.3311 29.236 15.2074V7.75488H31.1625Z" fill="#DB8144"/>
<path d="M39.6 24.7636C39.7266 24.7636 39.825 24.8324 39.8954 24.8874L40.4719 25.4511C40.5422 25.5199 40.5704 25.6024 40.5704 25.7399V28.6411H38.6438V26.8811C38.6438 26.7574 38.5454 26.6611 38.4188 26.6611H33.7782C33.6516 26.6611 33.5532 26.6336 33.4828 26.5649L32.9063 25.9874C32.836 25.9186 32.7797 25.7949 32.7797 25.6986V7.75488H34.7063V24.5436C34.7063 24.6674 34.8328 24.7636 34.9313 24.7636H36.7032C36.8297 24.7636 36.9282 24.6674 36.9282 24.5436V7.75488H38.8547V24.7636H39.6Z" fill="#DB8144"/>
<path d="M46.3641 26.6475V16.5962L43.9453 26.4825C43.9172 26.5787 43.8188 26.6337 43.7203 26.6337H42.1735V7.75496H44.1V17.71L46.4766 7.89246C46.5047 7.79621 46.6032 7.74121 46.7016 7.74121H48.2766V26.6612H46.3641V26.6475Z" fill="#DB8144"/>
<path d="M56.25 7.75488V26.6474H54.3235V19.0299H53.8453C53.7188 19.0299 53.6203 19.0986 53.6203 19.1811L51.8766 26.6474H49.9078L51.6094 19.2774C51.6375 19.1536 51.511 19.0299 51.3844 19.0299H51.1594C51.0328 19.0299 50.9344 18.9611 50.836 18.9061L50.2875 18.3699C50.2172 18.2736 50.161 18.1774 50.161 18.0536V8.70363C50.161 8.60738 50.2313 8.51113 50.2875 8.41488L50.836 7.87863C50.9344 7.78238 51.0328 7.75488 51.1594 7.75488H56.25ZM54.3235 9.63863H52.3266C52.2 9.63863 52.1016 9.73488 52.1016 9.85863V16.9124C52.1016 17.0361 52.2 17.1324 52.3266 17.1324H54.3235V9.63863Z" fill="#DB8144"/>
<path d="M6.04689 51.7423V31.6948H3.43126V51.7423H1.15314V29.9485C1.15314 29.6873 1.37814 29.4673 1.64532 29.4673H7.83282C8.1422 29.4673 8.32501 29.6873 8.32501 29.9485V51.7423H6.04689Z" fill="#728153"/>
<path d="M16.2281 51.7411V31.6936H13.8797C13.725 31.6936 13.6125 31.8036 13.6125 31.9548V50.6273C13.6125 50.7373 13.5422 50.8473 13.4578 50.9573L12.7688 51.5898C12.6985 51.6998 12.5719 51.7411 12.4313 51.7411H10.2234V49.5136H11.0531C11.1656 49.5136 11.3203 49.4036 11.3203 49.2523V30.6211C11.3203 30.4698 11.3625 30.3598 11.4328 30.2498L12.1219 29.6173C12.1922 29.5486 12.3469 29.4661 12.4594 29.4661H18.4922V51.7411H16.2281Z" fill="#728153"/>
<path d="M20.5594 30.4286L21.3891 29.6173C21.4594 29.5073 21.6141 29.4661 21.7266 29.4661H26.2125C26.3672 29.4661 26.4797 29.5073 26.5922 29.6173L27.4219 30.4286C27.4922 30.5386 27.5766 30.6486 27.5766 30.7586V51.7411H25.2985V40.3836H22.6828V51.7411H20.4047V30.7586C20.4047 30.6486 20.4469 30.5386 20.5594 30.4286ZM25.2985 38.1561V32.1748C25.2985 31.9136 25.0735 31.6936 24.8063 31.6936H23.175C22.9078 31.6936 22.6828 31.9136 22.6828 32.1748V38.1561H25.2985Z" fill="#728153"/>
<path d="M36.6609 29.4661V51.6998H34.3828V41.0023C34.3828 40.8511 34.2703 40.7411 34.1156 40.7411H32.0203C31.8656 40.7411 31.7531 40.8511 31.7531 41.0023V51.7273H29.475V29.5073H31.7531V38.2661C31.7531 38.4173 31.8656 38.5273 32.0203 38.5273H34.1156C34.2703 38.5273 34.3828 38.4173 34.3828 38.2661V29.4661H36.6609Z" fill="#728153"/>
<path d="M46.7157 31.6936H44.0578C43.9032 31.6936 43.7907 31.8036 43.7907 31.9548V51.7411H41.5125V31.9548C41.5125 31.8036 41.4 31.6936 41.2453 31.6936H38.5453V29.4661H46.7157V31.6936Z" fill="#728153"/>
<path d="M48.7688 30.4286L49.5985 29.6173C49.6688 29.5073 49.8235 29.4661 49.936 29.4661H54.4219C54.5766 29.4661 54.6891 29.5073 54.8016 29.6173L55.6313 30.4286C55.7016 30.5386 55.786 30.6486 55.786 30.7586V51.7411H53.5078V40.3836H50.8922V51.7411H48.6141V30.7586C48.6141 30.6486 48.6563 30.5386 48.7688 30.4286ZM53.5078 38.1561V32.1748C53.5078 31.9136 53.2828 31.6936 53.0156 31.6936H51.3844C51.1172 31.6936 50.8922 31.9136 50.8922 32.1748V38.1561H53.5078Z" fill="#728153"/>
<path d="M65.7422 49.5136C65.8969 49.5136 66.0094 49.5823 66.0797 49.6648L66.7688 50.3386C66.8391 50.4073 66.8813 50.5311 66.8813 50.6686V54.0786H64.6031V52.0023C64.6031 51.8511 64.4906 51.7411 64.3359 51.7411H58.8656C58.7109 51.7411 58.5984 51.6998 58.5281 51.6311L57.8391 50.9573C57.7688 50.8886 57.6844 50.7373 57.6844 50.6273V29.4661H59.9625V49.2523C59.9625 49.4036 60.1172 49.5136 60.2297 49.5136H62.325C62.4797 49.5136 62.5922 49.4036 62.5922 49.2523V29.4661H64.8703V49.5136H65.7422Z" fill="#728153"/>
<path d="M73.7156 51.7411V39.9024L70.8609 51.5624C70.8188 51.6724 70.7062 51.7549 70.5937 51.7549H68.7656V29.4799H71.0438V41.2086L73.8562 29.6311C73.8984 29.5211 74.0109 29.4524 74.1234 29.4524H75.9797V51.7686H73.7156V51.7411Z" fill="#728153"/>
<path d="M85.3735 29.4661V51.7411H83.0953V42.7624H82.5328C82.3781 42.7624 82.2656 42.8311 82.2656 42.9411L80.2125 51.7411H77.8922L79.9031 43.0511C79.9453 42.8999 79.7906 42.7486 79.636 42.7486H79.3688C79.2141 42.7486 79.1016 42.6799 78.9891 42.5974L78.3422 41.9649C78.2719 41.8549 78.1875 41.7449 78.1875 41.5936V30.5661C78.1875 30.4561 78.2578 30.3461 78.3422 30.2361L78.9891 29.6036C79.1016 29.4936 79.2141 29.4524 79.3688 29.4524H85.3735V29.4661ZM83.0953 31.6936H80.7469C80.5922 31.6936 80.4797 31.8036 80.4797 31.9549V40.2736C80.4797 40.4249 80.5922 40.5349 80.7469 40.5349H83.0953V31.6936Z" fill="#728153"/>
<path d="M62.0719 24.8601L60.0188 6.11886L52.5375 6.88886L52.3406 5.18386L61.5797 4.23511L63.6328 22.9351L81.436 20.7764L81.1969 17.1326L82.9547 15.5239L83.2922 22.2889L62.0719 24.8601Z" fill="#592F27"/>
<path d="M61.2 6.35263C61.1297 6.35263 61.0594 6.29763 61.0594 6.22888L60.9328 5.04638L59.8641 5.15638C59.7797 5.17013 59.7094 5.10138 59.7094 5.03263C59.6953 4.95013 59.7656 4.88138 59.836 4.88138L61.0594 4.75763C61.1438 4.74388 61.2141 4.81263 61.2141 4.88138L61.3547 6.20138C61.3688 6.28388 61.2985 6.35263 61.2281 6.35263C61.2141 6.35263 61.2141 6.35263 61.2 6.35263Z" fill="white"/>
<path d="M71.7469 6.20142C67.7672 6.20142 64.5328 9.36391 64.5328 13.2552C64.5328 17.1464 67.7672 20.3089 71.7469 20.3089C75.7266 20.3089 78.961 17.1464 78.961 13.2552C78.961 9.36391 75.7407 6.20142 71.7469 6.20142ZM74.6438 8.84142C74.3344 8.84142 74.0813 8.59392 74.0813 8.29142C74.0813 7.98892 74.3344 7.74142 74.6438 7.74142C74.9532 7.74142 75.2063 7.98892 75.2063 8.29142C75.2063 8.59392 74.9532 8.84142 74.6438 8.84142ZM77.8641 12.9939C77.836 12.9939 77.8219 12.9939 77.7938 12.9939C77.5828 12.9939 77.4 12.8427 77.3578 12.6364C77.0485 10.6839 75.6703 9.51517 75.6563 9.50142C75.4735 9.35017 75.4453 9.07517 75.6 8.89642C75.7547 8.71767 76.036 8.69017 76.2188 8.84142C76.2891 8.89642 77.8641 10.2164 78.2297 12.4989C78.2578 12.7327 78.1032 12.9527 77.8641 12.9939Z" fill="#DB8144"/>
<path d="M68.4985 25.3551C68.4985 26.6888 67.3875 27.7751 66.0235 27.7751C64.6594 27.7751 63.5485 26.6888 63.5485 25.3551C63.5485 24.0213 64.6594 22.9351 66.0235 22.9351C67.4016 22.9351 68.4985 24.0213 68.4985 25.3551ZM66.0375 24.4751C65.5313 24.4751 65.1375 24.8738 65.1375 25.3551C65.1375 25.8501 65.5453 26.2351 66.0375 26.2351C66.5438 26.2351 66.9375 25.8363 66.9375 25.3551C66.9375 24.8601 66.5297 24.4751 66.0375 24.4751Z" fill="#592F27"/>
<path d="M82.7296 23.1963C82.7296 24.1725 81.9281 24.9563 80.9296 24.9563C79.9312 24.9563 79.1296 24.1725 79.1296 23.1963C79.1296 22.22 79.9312 21.4363 80.9296 21.4363C81.9281 21.4363 82.7296 22.2338 82.7296 23.1963ZM80.9437 22.5638C80.5781 22.5638 80.2828 22.8525 80.2828 23.21C80.2828 23.5675 80.5781 23.8563 80.9437 23.8563C81.3093 23.8563 81.6046 23.5675 81.6046 23.21C81.5906 22.8525 81.2953 22.5638 80.9437 22.5638Z" fill="#592F27"/>
<path d="M70.5516 5.44496C70.5516 5.44496 70.9735 4.66121 72.0001 3.79496C73.0266 2.92871 72.9001 1.55371 72.9001 1.55371C72.9001 1.55371 69.7079 2.41996 70.1438 5.10121C70.1438 5.10121 70.0032 4.63371 70.6501 3.98746C70.6501 3.98746 70.4813 5.00496 70.5516 5.44496Z" fill="#728153"/>
<path d="M69.8204 5.28006C69.8204 5.28006 69.3001 3.03881 67.2047 2.35131C65.0954 1.66381 64.6594 0.935059 64.6594 0.935059C64.6594 0.935059 64.8563 4.75756 69.4266 5.92631C69.4266 5.92631 69.3985 5.33506 69.0891 4.82631C69.0891 4.85381 69.0891 4.68881 69.8204 5.28006Z" fill="#728153"/>
</svg>
