<svg width="31" height="30" viewBox="0 0 31 30" fill="none" xmlns="http://www.w3.org/2000/svg">
<path d="M15.5145 12.4318C16.9946 12.4266 18.1734 11.276 18.168 9.84059C18.1626 8.40458 16.9813 7.26197 15.5006 7.26074C14.0075 7.25921 12.8151 8.42299 12.8265 9.87189C12.8376 11.3021 14.0297 12.437 15.5145 12.4318Z" fill="#ED812B"/>
<path d="M15.5 0C6.93956 0 0 6.71601 0 15C0 23.284 6.93956 30 15.5 30C24.0604 30 31 23.284 31 15C31 6.71601 24.0604 0 15.5 0ZM15.5222 4.56153C18.5413 4.56951 20.9646 6.95939 20.949 9.91335C20.9338 12.7992 18.4709 15.1381 15.4569 15.1283C12.4736 15.1185 10.0269 12.7249 10.0446 9.83325C10.0614 6.90997 12.5094 4.55356 15.5222 4.56153ZM21.6372 17.2042C20.9696 17.8674 20.166 18.3474 19.2736 18.6823C18.43 18.9987 17.5056 19.158 16.5903 19.2641C16.7289 19.4096 16.7939 19.4811 16.8802 19.5646C18.1221 20.7729 19.37 21.975 20.6078 23.1867C21.0296 23.5998 21.1174 24.1117 20.8853 24.5914C20.6319 25.1162 20.0633 25.4612 19.5054 25.424C19.1521 25.4004 18.8765 25.2307 18.632 24.9922C17.6946 24.0795 16.7394 23.183 15.8216 22.2531C15.5536 21.9824 15.4255 22.034 15.1892 22.2691C14.2464 23.2088 13.288 24.1335 12.3242 25.0533C11.8913 25.4664 11.3763 25.5413 10.8739 25.305C10.3402 25.0551 10.0009 24.5276 10.0269 23.9969C10.0453 23.6391 10.2273 23.3647 10.4816 23.1198C11.7112 21.9324 12.9369 20.7413 14.163 19.5511C14.2445 19.4722 14.3199 19.3884 14.4382 19.2657C12.766 19.0966 11.258 18.6982 9.96694 17.7213C9.80647 17.5998 9.64124 17.4826 9.49536 17.3463C8.9299 16.8212 8.87314 16.2193 9.31998 15.6C9.70276 15.0697 10.3446 14.9279 11.0122 15.2326C11.1416 15.2913 11.2647 15.3655 11.3826 15.4441C13.7884 17.044 17.0936 17.0879 19.5089 15.5156C19.748 15.3388 20.004 15.1933 20.3005 15.12C20.8764 14.9764 21.4143 15.1817 21.7232 15.6697C22.0768 16.2273 22.0726 16.7712 21.6372 17.2042Z" fill="#ED812B"/>
</svg>
