<svg width="58" height="58" viewBox="0 0 58 58" fill="none" xmlns="http://www.w3.org/2000/svg">
<g clip-path="url(#clip0)">
<path d="M26.4702 42.2012H24.3448C23.8758 42.2012 23.4952 42.5817 23.4952 43.0508C23.4952 43.5198 23.8758 43.9004 24.3448 43.9004H26.4702C26.9393 43.9004 27.3198 43.5198 27.3198 43.0508C27.3198 42.5817 26.9393 42.2012 26.4702 42.2012Z" fill="#1A1A1A"/>
<path d="M24 39V32H32L41 38V39.5H37.5H27.5L24 39Z" fill="#F2721B"/>
<path d="M13.5 33L10 36.5L8.5 38L11.5 39.5H20.5V37C20.5 36.5 21 34.5 21 34C21 33.6 20.6667 32.5 20.5 32L17.5 31.5L13.5 33Z" fill="#F2721B"/>
<path d="M20.5553 30.8704H18.5295C15.8625 30.8704 13.3535 31.9072 11.464 33.7891C10.6078 34.6423 9.64267 35.3742 8.59526 35.9649C8.01204 36.2941 7.71556 36.9774 7.87397 37.6265C8.2563 39.1912 9.64842 40.2842 11.2591 40.2842H20.5553C21.2137 40.2842 21.7492 39.7488 21.7492 39.0903V32.0642C21.7492 31.4058 21.2137 30.8704 20.5553 30.8704ZM20.0499 38.585H11.2591C10.4843 38.585 9.80816 38.0916 9.56611 37.3672C10.6945 36.7154 11.7357 35.9171 12.6632 34.9932C14.2319 33.4303 16.3152 32.5696 18.5295 32.5696H20.0499V38.585Z" fill="#1A1A1A"/>
<circle cx="10" cy="49" r="2" fill="#F2721B"/>
<circle cx="48" cy="49" r="2" fill="#F2721B"/>
<circle cx="55" cy="42" r="2" fill="#F2721B"/>
<circle cx="2" cy="42" r="2" fill="#F2721B"/>
<path d="M40.6618 36.9137C40.3056 36.7176 39.9538 36.503 39.6161 36.2747L34.1556 32.586C32.4945 31.4638 30.5567 30.8704 28.5517 30.8704H24.3741C23.7705 30.8704 23.2793 31.3615 23.2793 31.9651V39.1895C23.2793 39.793 23.7705 40.2842 24.3741 40.2842H40.6666C41.3547 40.2842 41.9176 39.7271 41.9216 39.0421C41.926 38.1589 41.4432 37.3433 40.6618 36.9137ZM24.9785 38.585V32.5696H28.5517C30.216 32.5696 31.825 33.0621 33.2042 33.994L38.6648 37.6827C39.0453 37.9398 39.4418 38.1819 39.8427 38.4027C39.929 38.45 40.0029 38.5124 40.0622 38.585H24.9785Z" fill="#1A1A1A"/>
<path d="M10.3144 46.2175C9.57272 46.2175 8.87534 46.5065 8.35052 47.0313C7.8266 47.5552 7.53809 48.2526 7.53809 48.9951C7.53809 49.7372 7.8266 50.435 8.35052 50.959C8.87489 51.4833 9.57272 51.7723 10.3144 51.7723C11.0564 51.7723 11.7538 51.4833 12.2782 50.959C12.8026 50.4346 13.0915 49.7372 13.0915 48.9951C13.0915 48.2535 12.803 47.5557 12.2782 47.0313C11.7538 46.5065 11.0564 46.2175 10.3144 46.2175ZM11.0764 49.7576C10.8732 49.9611 10.6024 50.0731 10.3144 50.0731C10.0263 50.0731 9.75548 49.9611 9.55193 49.7571C9.34926 49.5545 9.2373 49.2836 9.2373 48.9951C9.2373 48.7066 9.34926 48.4358 9.55193 48.2327C9.75592 48.0291 10.0267 47.9167 10.3144 47.9167C10.6024 47.9167 10.8732 48.0291 11.0768 48.2327C11.2803 48.4362 11.3923 48.7071 11.3923 48.9951C11.3923 49.2832 11.2803 49.5536 11.0764 49.7576Z" fill="#1A1A1A"/>
<circle cx="25.5" cy="18.5" r="2.5" fill="#F2721B"/>
<circle cx="31.5" cy="18.5" r="2.5" fill="#F2721B"/>
<circle cx="36.5" cy="18.5" r="2.5" fill="#F2721B"/>
<circle cx="42.5" cy="18.5" r="2.5" fill="#F2721B"/>
<circle cx="48.5" cy="18.5" r="2.5" fill="#F2721B"/>
<rect x="18" y="5" width="38" height="3" fill="#F2721B"/>
<path d="M47.5839 46.2175C46.8423 46.2175 46.1449 46.5065 45.6201 47.0313C45.0961 47.5552 44.8076 48.2526 44.8076 48.9951C44.8076 49.7372 45.0961 50.435 45.6201 50.959C46.1444 51.4833 46.8423 51.7723 47.5839 51.7723C48.326 51.7723 49.0234 51.4833 49.5477 50.959C50.0725 50.4346 50.3615 49.7372 50.3615 48.9951C50.3615 48.2535 50.0725 47.5557 49.5477 47.0313C49.0234 46.5065 48.326 46.2175 47.5839 46.2175ZM48.3463 49.7576C48.1428 49.9611 47.872 50.0731 47.5839 50.0731C47.2958 50.0731 47.025 49.9611 46.8215 49.7571C46.6183 49.5545 46.5068 49.2836 46.5068 48.9951C46.5068 48.7066 46.6183 48.4358 46.8215 48.2327C47.025 48.0291 47.2958 47.9167 47.5839 47.9167C47.872 47.9167 48.1428 48.0291 48.3463 48.2327C48.5499 48.4362 48.6618 48.7071 48.6618 48.9951C48.6618 49.2832 48.5499 49.5536 48.3463 49.7576Z" fill="#1A1A1A"/>
<path d="M57.2845 40.81L57.0238 40.3768C57.0234 40.3763 57.0234 40.3763 57.0229 40.3759C56.0366 38.7395 54.3967 37.5877 52.5227 37.2151L44.9881 35.7168C43.4805 35.4172 42.0088 34.5061 41.033 33.8467L35.573 30.158C35.5137 30.1182 35.4535 30.0806 35.3942 30.0421H47.5197C48.7304 30.0421 49.7154 29.0571 49.7154 27.8464V21.6305C50.931 21.0291 51.7691 19.776 51.7691 18.3303V16.8444C51.7691 16.8426 51.7691 16.8404 51.7691 16.8386C51.7691 16.8302 51.7678 16.8218 51.7678 16.8134C51.7669 16.789 51.7655 16.7652 51.7625 16.7417C51.7616 16.732 51.7594 16.7222 51.758 16.7125C51.7545 16.6895 51.7501 16.6665 51.7443 16.6439C51.7425 16.6351 51.7403 16.6262 51.7377 16.6174C51.7306 16.5917 51.7222 16.5665 51.7129 16.5421C51.7116 16.5381 51.7107 16.5337 51.7089 16.5297L51.7036 16.516C51.7032 16.5151 51.7027 16.5138 51.7023 16.5129L50.1438 12.6034C49.9048 12.0034 49.3331 11.6157 48.6875 11.6157H24.8405C24.1948 11.6157 23.6231 12.0034 23.3842 12.6034L21.8257 16.5129C21.8252 16.5138 21.8248 16.5147 21.8243 16.516L21.8186 16.5302C21.8173 16.5342 21.8164 16.5381 21.8146 16.5426C21.8053 16.5669 21.7969 16.5921 21.7898 16.6178C21.7876 16.6262 21.7854 16.6351 21.7832 16.6439C21.7779 16.6665 21.773 16.6895 21.7695 16.7125C21.7681 16.7222 21.7664 16.732 21.765 16.7417C21.7624 16.7652 21.7606 16.7895 21.7602 16.8134C21.7597 16.8218 21.7589 16.8302 21.7589 16.8386C21.7589 16.8404 21.7584 16.8426 21.7584 16.8444V18.3303C21.7584 19.9419 22.8001 21.3141 24.2448 21.811V27.8464C24.2448 27.9008 24.2497 27.9548 24.2537 28.0088H18.529C15.1877 28.0088 12.0441 29.3075 9.67714 31.6661C8.18546 33.152 6.30791 34.1653 4.24672 34.5972L3.06169 34.8455C1.28857 35.2167 0.00177002 36.8013 0.00177002 38.6129V40.7728C0.00132752 40.7839 0 40.7945 0 40.8056V44.2044C0 44.2155 0.00132752 44.2266 0.00177002 44.2376V45.7019C0.00177002 46.6652 0.570389 47.54 1.45097 47.9312L5.03217 49.5233C5.14899 50.7022 5.65742 51.8492 6.55881 52.7505C7.59427 53.786 8.95453 54.3037 10.3148 54.3037C11.6746 54.3037 13.0349 53.786 14.0703 52.7505C14.8894 51.9315 15.3832 50.9093 15.554 49.8446H42.3411C42.5163 50.9402 43.0287 51.9505 43.8283 52.7505C44.8315 53.7537 46.1652 54.3064 47.5843 54.3064C49.0025 54.3064 50.3367 53.7537 51.3394 52.7505C52.1395 51.9505 52.6519 50.9402 52.8271 49.8446H54.9149C56.6158 49.8446 58 48.4604 58 46.759V43.3836C58 42.4769 57.7526 41.5866 57.2845 40.81ZM48.0162 27.8464C48.0162 28.1203 47.7932 28.3428 47.5197 28.3428H31.4289C30.4926 28.1225 29.5288 28.0088 28.5517 28.0088H25.9724C25.9556 27.9614 25.9441 27.9079 25.9441 27.8464V21.9752C26.8751 21.8469 27.6964 21.3699 28.2703 20.6796C28.946 21.4924 29.9642 22.011 31.1015 22.011C32.2387 22.011 33.2569 21.4924 33.9326 20.6796C34.6083 21.4924 35.6265 22.011 36.7637 22.011C37.901 22.011 38.9192 21.4924 39.5949 20.6796C40.2706 21.4924 41.2888 22.011 42.426 22.011C43.5633 22.011 44.5815 21.4924 45.2572 20.6796C45.9183 21.4747 46.9082 21.9876 48.0158 22.0088V27.8464H48.0162ZM29.1199 18.3303V17.694H33.083V18.3303C33.083 19.4228 32.194 20.3118 31.1015 20.3118C30.0089 20.3118 29.1199 19.4228 29.1199 18.3303ZM34.7822 18.3303V17.694H38.7453V18.3303C38.7453 19.4228 37.8563 20.3118 36.7637 20.3118C35.6712 20.3118 34.7822 19.4228 34.7822 18.3303ZM40.4445 18.3303V17.694H44.4076V18.3303C44.4076 19.4228 43.5186 20.3118 42.426 20.3118C41.3335 20.3118 40.4445 19.4228 40.4445 18.3303ZM50.0699 17.694V18.3303C50.0699 19.2826 49.3942 20.08 48.4968 20.2689C48.4826 20.272 48.468 20.2738 48.4534 20.2764C48.4091 20.2848 48.3649 20.2919 48.3198 20.2972C48.3016 20.299 48.2835 20.3012 48.2653 20.3025C48.2074 20.3078 48.1485 20.3118 48.0888 20.3118C46.9958 20.3118 46.1072 19.4228 46.1072 18.3303V17.694H50.0699ZM24.9294 13.3149H48.5981L49.6663 15.9948H23.8612L24.9294 13.3149ZM23.4576 18.3303V17.694H27.4207V18.3303C27.4207 19.4228 26.5322 20.3118 25.4392 20.3118C25.3825 20.3118 25.3268 20.3078 25.271 20.303C25.2515 20.3017 25.2325 20.2999 25.2122 20.2977C24.2263 20.1844 23.4576 19.3458 23.4576 18.3303ZM1.70099 41.6552H2.82318V43.3548H1.70099V41.6552ZM12.8685 51.5491C11.46 52.9576 9.1687 52.9576 7.76021 51.5491C6.35172 50.1406 6.35172 47.8489 7.76021 46.4409C8.46423 45.7364 9.38951 45.3846 10.3143 45.3846C11.2396 45.3846 12.1645 45.7364 12.8685 46.4409C14.277 47.8493 14.277 50.1406 12.8685 51.5491ZM50.138 51.5491C49.4561 52.231 48.549 52.6072 47.5839 52.6072C46.6192 52.6072 45.7121 52.231 45.0297 51.5491C44.3474 50.8668 43.9717 49.9597 43.9717 48.995C43.9717 48.0299 44.3474 47.1228 45.0297 46.4409C45.7121 45.7585 46.6192 45.3828 47.5839 45.3828C48.549 45.3828 49.4557 45.7585 50.138 46.4409C50.8204 47.1228 51.196 48.0299 51.196 48.995C51.196 49.9597 50.8204 50.8668 50.138 51.5491ZM56.3008 46.759C56.3008 47.5237 55.6791 48.1454 54.9149 48.1454H52.8271C52.6519 47.0497 52.1395 46.0391 51.3399 45.239C50.3367 44.2359 49.0025 43.6836 47.5843 43.6836C46.1652 43.6836 44.8315 44.2359 43.8283 45.239C43.0287 46.0391 42.5163 47.0497 42.3411 48.1454H15.554C15.3828 47.0807 14.889 46.0581 14.0699 45.239C11.9994 43.1681 8.62973 43.1685 6.55881 45.239C5.84947 45.9488 5.38307 46.8108 5.15961 47.7206L2.14084 46.3785C1.87357 46.2599 1.70099 45.9944 1.70099 45.7019V45.054H3.19135C3.92502 45.054 4.5224 44.4571 4.5224 43.723V41.287C4.5224 40.5529 3.92502 39.9559 3.19135 39.9559H1.70099V38.6129C1.70099 37.6009 2.41962 36.7159 3.41039 36.5084L4.59541 36.2601C6.97919 35.761 9.151 34.5884 10.8763 32.8697C12.9225 30.8306 15.6403 29.708 18.529 29.708H28.5517C29.4044 29.708 30.2452 29.8084 31.0621 30.0022C31.0944 30.0129 31.128 30.0208 31.1621 30.027C32.3883 30.3306 33.5578 30.8474 34.6216 31.5661L40.0816 35.2548C41.2724 36.0592 42.8681 37.0279 44.6567 37.3837L52.1912 38.882C53.0249 39.0475 53.7958 39.4201 54.44 39.9511C53.259 40.1568 52.3576 41.1888 52.3576 42.4282V43.7305C52.3576 44.4841 52.9709 45.0974 53.725 45.0974H56.3008V46.759ZM56.3008 43.3982H54.0573V42.4282C54.0573 41.9782 54.4232 41.6118 54.8733 41.6118H55.7839L55.8291 41.687C56.1379 42.199 56.3008 42.7858 56.3008 43.3836V43.3982Z" fill="#1A1A1A"/>
<path d="M18.0782 9.39438H19.0795V24.9051C19.0795 25.3746 19.4601 25.7547 19.9292 25.7547C20.3982 25.7547 20.7788 25.3746 20.7788 24.9051V9.39438H53.1816V34.7012C53.1816 35.1703 53.5617 35.5508 54.0312 35.5508C54.5003 35.5508 54.8808 35.1703 54.8808 34.7012V9.39438H55.8822C56.5717 9.39438 57.1328 8.83328 57.1328 8.14386V4.9888C57.1328 4.29938 56.5717 3.73828 55.8822 3.73828H18.0782C17.3887 3.73828 16.8276 4.29938 16.8276 4.9888V8.14386C16.8276 8.83328 17.3887 9.39438 18.0782 9.39438ZM18.5269 5.4375H55.4335V7.69516H18.5269V5.4375Z" fill="#1A1A1A"/>
</g>
<defs>
<clipPath id="clip0">
<rect width="58" height="58" fill="white"/>
</clipPath>
</defs>
</svg>
