<svg width="58" height="58" viewBox="0 0 58 58" fill="none" xmlns="http://www.w3.org/2000/svg">
<circle cx="16.5" cy="41.5" r="4.5" fill="#F2721B"/>
<circle cx="48.5" cy="41.5" r="4.5" fill="#F2721B"/>
<circle cx="55" cy="33" r="2" fill="#F2721B"/>
<path d="M41.5 19V15.5H49C49.4 15.5 50.8333 16.5 51.5 17L52 19H45.5H41.5Z" fill="#F2721B"/>
<path d="M53.9398 26.2091L52.4378 20.2013C52.8484 20.114 53.1565 19.7497 53.1565 19.3133V18.3446C53.1565 16.2414 51.4454 14.5304 49.3424 14.5304H42.5011V12.5324C42.5011 11.4974 41.6592 10.6555 40.6242 10.6555H5.75152C4.71658 10.6555 3.87467 11.4974 3.87467 12.5324V29.0001C3.87467 29.5016 4.28124 29.9082 4.78285 29.9082C5.28434 29.9082 5.69102 29.5017 5.69102 29.0001V12.5324C5.69102 12.4989 5.7181 12.4719 5.75152 12.4719H40.6241C40.6575 12.4719 40.6846 12.4989 40.6846 12.5324V29.0003C40.6846 29.5018 41.0912 29.9085 41.5928 29.9085C42.0943 29.9085 42.501 29.5019 42.501 29.0003V27.9708H53.2139C53.2148 27.9708 53.2155 27.971 53.2162 27.971C53.2171 27.971 53.2179 27.9709 53.2187 27.9709C54.537 27.9718 55.6563 28.837 56.0408 30.0293H53.2169C52.7154 30.0293 52.3087 30.4359 52.3087 30.9375V32.8748C52.3087 34.4439 53.5852 35.7204 55.1543 35.7204H56.1835V39.7161H53.8089C53.0289 37.4637 50.8877 35.8413 48.3735 35.8413C45.8592 35.8413 43.7179 37.4637 42.938 39.7161H42.5007V32.8747C42.5007 32.3732 42.0942 31.9666 41.5926 31.9666C41.0911 31.9666 40.6844 32.3731 40.6844 32.8747V39.7159H21.8426C21.0625 37.4635 18.9214 35.8411 16.4071 35.8411C13.8928 35.8411 11.7516 37.4635 10.9716 39.7159H5.75152C5.7181 39.7159 5.69102 39.6888 5.69102 39.6554V37.6575H9.6263C10.1278 37.6575 10.5345 37.2509 10.5345 36.7493C10.5345 36.2477 10.1279 35.8411 9.6263 35.8411H0.908176C0.40668 35.8411 0 36.2477 0 36.7493C0 37.2509 0.406566 37.6575 0.908176 37.6575H3.87479V39.6554C3.87479 40.6903 4.71669 41.5322 5.75163 41.5322H10.6572C10.6569 41.5524 10.6556 41.5725 10.6556 41.5927C10.6556 44.7642 13.2358 47.3442 16.4071 47.3442C19.5784 47.3442 22.1586 44.7642 22.1586 41.5927C22.1586 41.5723 22.1572 41.5524 22.157 41.5322H42.6235C42.6233 41.5524 42.622 41.5725 42.622 41.5927C42.622 44.7642 45.2022 47.3442 48.3735 47.3442C51.5448 47.3442 54.125 44.7642 54.125 41.5927C54.125 41.5723 54.1236 41.5524 54.1234 41.5322H57.0917C57.5932 41.5322 57.9999 41.1257 57.9999 40.6241V30.9373C58 28.5457 56.2354 26.5586 53.9398 26.2091ZM42.5011 16.3467H49.3424C50.444 16.3467 51.3403 17.2429 51.3403 18.3446V18.4051H42.5011V16.3467ZM42.5011 26.1545V20.2213H50.5707L52.054 26.1545H42.5011ZM16.4071 45.5282C14.2372 45.5282 12.4718 43.763 12.4718 41.593C12.4718 39.423 14.2372 37.6577 16.4071 37.6577C18.577 37.6577 20.3424 39.423 20.3424 41.593C20.3424 43.763 18.577 45.5282 16.4071 45.5282ZM48.3737 45.5282C46.2038 45.5282 44.4384 43.763 44.4384 41.593C44.4384 39.423 46.2038 37.6577 48.3737 37.6577C50.5436 37.6577 52.309 39.423 52.309 41.593C52.309 43.763 50.5436 45.5282 48.3737 45.5282ZM56.1838 33.904H55.1545C54.5869 33.904 54.1252 33.4423 54.1252 32.8747V31.8455H56.1836V33.904H56.1838Z" fill="#1A1A1A"/>
<path d="M16.4071 39.7161C15.3722 39.7161 14.5303 40.558 14.5303 41.5929C14.5303 42.6278 15.3722 43.4698 16.4071 43.4698C17.4421 43.4698 18.284 42.6278 18.284 41.5929C18.284 40.558 17.4421 39.7161 16.4071 39.7161Z" fill="#1A1A1A"/>
<path d="M48.3737 39.7161C47.3387 39.7161 46.4968 40.558 46.4968 41.5929C46.4968 42.6278 47.3387 43.4698 48.3737 43.4698C49.4086 43.4698 50.2505 42.6278 50.2505 41.5929C50.2505 40.558 49.4086 39.7161 48.3737 39.7161Z" fill="#1A1A1A"/>
<path d="M37.7182 35.8413H24.1566C23.6551 35.8413 23.2484 36.2479 23.2484 36.7495C23.2484 37.2511 23.655 37.6577 24.1566 37.6577H37.7182C38.2197 37.6577 38.6263 37.2511 38.6263 36.7495C38.6263 36.2479 38.2198 35.8413 37.7182 35.8413Z" fill="#1A1A1A"/>
<path d="M14.4698 31.9666H2.84555C2.34406 31.9666 1.93738 32.3731 1.93738 32.8747C1.93738 33.3763 2.34394 33.7829 2.84555 33.7829H14.4698C14.9713 33.7829 15.378 33.3763 15.378 32.8747C15.378 32.3731 14.9713 31.9666 14.4698 31.9666Z" fill="#1A1A1A"/>
<path d="M31.5795 19.6394C31.2249 19.2849 30.6498 19.2849 30.2952 19.6396L22.2192 27.7155L18.0179 23.5142C17.6632 23.1596 17.0882 23.1596 16.7337 23.5142C16.379 23.8689 16.379 24.4438 16.7337 24.7985L21.5771 29.642C21.7544 29.8194 21.9869 29.9079 22.2192 29.9079C22.4515 29.9079 22.6841 29.8194 22.8613 29.642L31.5794 20.9238C31.9341 20.569 31.9341 19.9941 31.5795 19.6394Z" fill="#F2721B"/>
</svg>
