<svg width="22" height="22" viewBox="0 0 22 22" fill="none" xmlns="http://www.w3.org/2000/svg">
<path d="M3.34778 16.261C3.08365 16.261 2.86951 16.0469 2.86951 15.7827V6.21753C2.86951 5.9534 3.08365 5.73926 3.34778 5.73926C3.61191 5.73926 3.82605 5.9534 3.82605 6.21753V15.7827C3.82601 16.0469 3.61191 16.261 3.34778 16.261Z" fill="#455A64"/>
<path d="M5.26075 14.3479C4.99661 14.3479 4.78247 14.1338 4.78247 13.8697V6.21753C4.78247 5.9534 4.99661 5.73926 5.26075 5.73926C5.52489 5.73926 5.73903 5.9534 5.73903 6.21753V13.8697C5.73903 14.1338 5.52489 14.3479 5.26075 14.3479Z" fill="#455A64"/>
<path d="M7.17383 14.3479C6.9097 14.3479 6.69556 14.1338 6.69556 13.8697V6.21753C6.69556 5.9534 6.9097 5.73926 7.17383 5.73926C7.43797 5.73926 7.65211 5.9534 7.65211 6.21753V13.8697C7.65211 14.1338 7.43797 14.3479 7.17383 14.3479Z" fill="#455A64"/>
<path d="M9.08692 14.3479C8.82278 14.3479 8.60864 14.1338 8.60864 13.8697V6.21753C8.60864 5.9534 8.82278 5.73926 9.08692 5.73926C9.35105 5.73926 9.56519 5.9534 9.56519 6.21753V13.8697C9.56515 14.1338 9.35105 14.3479 9.08692 14.3479Z" fill="#455A64"/>
<path d="M10.9999 16.261C10.7358 16.261 10.5216 16.0469 10.5216 15.7827V6.21753C10.5216 5.9534 10.7358 5.73926 10.9999 5.73926C11.264 5.73926 11.4782 5.9534 11.4782 6.21753V15.7827C11.4782 16.0469 11.264 16.261 10.9999 16.261Z" fill="#455A64"/>
<path d="M12.913 14.3479C12.6488 14.3479 12.4347 14.1338 12.4347 13.8697V6.21753C12.4347 5.9534 12.6488 5.73926 12.913 5.73926C13.1771 5.73926 13.3912 5.9534 13.3912 6.21753V13.8697C13.3912 14.1338 13.1771 14.3479 12.913 14.3479Z" fill="#455A64"/>
<path d="M14.8261 14.3479C14.5619 14.3479 14.3478 14.1338 14.3478 13.8697V6.21753C14.3478 5.9534 14.5619 5.73926 14.8261 5.73926C15.0902 5.73926 15.3043 5.9534 15.3043 6.21753V13.8697C15.3043 14.1338 15.0902 14.3479 14.8261 14.3479Z" fill="#455A64"/>
<path d="M16.739 14.3479C16.4749 14.3479 16.2607 14.1338 16.2607 13.8697V6.21753C16.2607 5.9534 16.4749 5.73926 16.739 5.73926C17.0032 5.73926 17.2173 5.9534 17.2173 6.21753V13.8697C17.2173 14.1338 17.0032 14.3479 16.739 14.3479Z" fill="#455A64"/>
<path d="M18.6521 16.261C18.388 16.261 18.1738 16.0469 18.1738 15.7827V6.21753C18.1738 5.9534 18.388 5.73926 18.6521 5.73926C18.9162 5.73926 19.1304 5.9534 19.1304 6.21753V15.7827C19.1304 16.0469 18.9162 16.261 18.6521 16.261Z" fill="#455A64"/>
<path d="M5.26074 16.261C5.19797 16.2632 5.1356 16.25 5.07901 16.2228C5.0192 16.2026 4.9662 16.1662 4.92599 16.1175C4.74108 15.9417 4.73372 15.6493 4.90958 15.4644C4.91491 15.4588 4.92038 15.4533 4.92599 15.448C4.96616 15.3993 5.0192 15.3628 5.07901 15.3428C5.25657 15.2696 5.46076 15.3112 5.59554 15.448C5.78045 15.6366 5.77749 15.9394 5.58886 16.1243C5.50111 16.2103 5.38364 16.2593 5.26074 16.261Z" fill="#455A64"/>
<path d="M7.17382 16.2612C7.11105 16.2634 7.04868 16.2503 6.9921 16.223C6.93229 16.2029 6.87929 16.1664 6.83907 16.1178C6.65416 15.9419 6.64681 15.6495 6.82266 15.4646C6.828 15.459 6.83347 15.4535 6.83907 15.4482C6.87924 15.3995 6.93229 15.3631 6.9921 15.343C7.16956 15.2687 7.37433 15.3105 7.50862 15.4482C7.55727 15.4884 7.59372 15.5414 7.61385 15.6012C7.66487 15.717 7.66487 15.8489 7.61385 15.9647C7.5939 16.0246 7.55745 16.0777 7.50862 16.1178C7.4224 16.2108 7.30071 16.263 7.17382 16.2612Z" fill="#455A64"/>
<path d="M9.08691 16.2612C9.02414 16.2634 8.96177 16.2503 8.90518 16.223C8.84537 16.2029 8.79238 16.1664 8.75216 16.1178C8.56725 15.9419 8.5599 15.6495 8.73575 15.4646C8.74108 15.459 8.74655 15.4535 8.75216 15.4482C8.79233 15.3995 8.84537 15.3631 8.90518 15.343C9.08265 15.2687 9.28742 15.3105 9.42171 15.4482C9.47035 15.4884 9.50681 15.5414 9.52694 15.6012C9.57796 15.717 9.57796 15.8489 9.52694 15.9647C9.50699 16.0246 9.47053 16.0777 9.42171 16.1178C9.33548 16.2108 9.2138 16.263 9.08691 16.2612Z" fill="#455A64"/>
<path d="M12.913 16.2608C12.6489 16.257 12.4377 16.0399 12.4415 15.7759C12.4432 15.653 12.4921 15.5355 12.5782 15.4477C12.7641 15.2655 13.0618 15.2655 13.2477 15.4477C13.2964 15.488 13.3328 15.5409 13.3529 15.6008C13.404 15.7165 13.404 15.8484 13.3529 15.9643C13.333 16.0242 13.2965 16.0772 13.2477 16.1173C13.1615 16.2104 13.0398 16.2626 12.913 16.2608Z" fill="#455A64"/>
<path d="M14.826 16.2608C14.562 16.2571 14.3508 16.04 14.3545 15.7759C14.3562 15.653 14.4052 15.5355 14.4912 15.4478C14.6772 15.2655 14.9749 15.2655 15.1608 15.4478C15.3457 15.6363 15.3427 15.9392 15.1541 16.1241C15.0664 16.2101 14.9489 16.259 14.826 16.2608Z" fill="#455A64"/>
<path d="M16.739 16.2608C16.6122 16.2626 16.4905 16.2104 16.4042 16.1173C16.3554 16.0773 16.3189 16.0242 16.299 15.9643C16.248 15.8485 16.248 15.7166 16.299 15.6008C16.3191 15.5409 16.3556 15.4879 16.4042 15.4478C16.5902 15.2655 16.8879 15.2655 17.0738 15.4478C17.2587 15.6363 17.2558 15.9392 17.0671 16.1241C16.9794 16.2101 16.8619 16.259 16.739 16.2608Z" fill="#455A64"/>
<path d="M0.478276 6.69569C0.214141 6.69569 0 6.4816 0 6.21746V3.3479C0 3.08377 0.214141 2.86963 0.478276 2.86963H3.34784C3.61197 2.86963 3.82611 3.08377 3.82611 3.3479C3.82611 3.61204 3.61197 3.82618 3.34784 3.82618H0.956506V6.21746C0.956506 6.4816 0.74241 6.69569 0.478276 6.69569Z" fill="#2196F3"/>
<path d="M3.34784 19.1303H0.478275C0.214141 19.1303 0 18.9162 0 18.652V15.7825C0 15.5183 0.214141 15.3042 0.478275 15.3042C0.74241 15.3042 0.956506 15.5183 0.956506 15.7825V18.1738H3.34779C3.61193 18.1738 3.82607 18.3879 3.82607 18.652C3.82607 18.9162 3.61197 19.1303 3.34784 19.1303Z" fill="#2196F3"/>
<path d="M21.5217 6.69569C21.2575 6.69569 21.0434 6.48155 21.0434 6.21742V3.82613H18.6521C18.388 3.82613 18.1738 3.61199 18.1738 3.34786C18.1738 3.08373 18.388 2.86963 18.6521 2.86963H21.5217C21.7858 2.86963 21.9999 3.08377 21.9999 3.3479V6.21746C21.9999 6.4816 21.7858 6.69569 21.5217 6.69569Z" fill="#2196F3"/>
<path d="M21.5217 19.1303H18.6521C18.388 19.1303 18.1738 18.9162 18.1738 18.652C18.1738 18.3879 18.388 18.1738 18.6521 18.1738H21.0434V15.7825C21.0434 15.5183 21.2575 15.3042 21.5217 15.3042C21.7858 15.3042 21.9999 15.5183 21.9999 15.7825V18.652C21.9999 18.9162 21.7858 19.1303 21.5217 19.1303Z" fill="#2196F3"/>
<path d="M3.34778 16.261C3.08365 16.261 2.86951 16.0469 2.86951 15.7827V6.21753C2.86951 5.9534 3.08365 5.73926 3.34778 5.73926C3.61191 5.73926 3.82605 5.9534 3.82605 6.21753V15.7827C3.82601 16.0469 3.61191 16.261 3.34778 16.261Z" fill="#B7B7B7"/>
<path d="M5.26087 14.3479C4.99674 14.3479 4.78259 14.1338 4.78259 13.8697V6.21753C4.78259 5.9534 4.99674 5.73926 5.26087 5.73926C5.52501 5.73926 5.73915 5.9534 5.73915 6.21753V13.8697C5.73915 14.1338 5.52501 14.3479 5.26087 14.3479Z" fill="#B7B7B7"/>
<path d="M7.17395 14.3479C6.90982 14.3479 6.69568 14.1338 6.69568 13.8697V6.21753C6.69568 5.9534 6.90982 5.73926 7.17395 5.73926C7.43809 5.73926 7.65223 5.9534 7.65223 6.21753V13.8697C7.65223 14.1338 7.43809 14.3479 7.17395 14.3479Z" fill="#B7B7B7"/>
<path d="M9.08692 14.3479C8.82278 14.3479 8.60864 14.1338 8.60864 13.8697V6.21753C8.60864 5.9534 8.82278 5.73926 9.08692 5.73926C9.35105 5.73926 9.56519 5.9534 9.56519 6.21753V13.8697C9.56515 14.1338 9.35105 14.3479 9.08692 14.3479Z" fill="#B7B7B7"/>
<path d="M11 16.261C10.7359 16.261 10.5217 16.0469 10.5217 15.7827V6.21753C10.5217 5.9534 10.7359 5.73926 11 5.73926C11.2642 5.73926 11.4783 5.9534 11.4783 6.21753V15.7827C11.4783 16.0469 11.2642 16.261 11 16.261Z" fill="#B7B7B7"/>
<path d="M12.9131 14.3479C12.649 14.3479 12.4348 14.1338 12.4348 13.8697V6.21753C12.4348 5.9534 12.649 5.73926 12.9131 5.73926C13.1772 5.73926 13.3914 5.9534 13.3914 6.21753V13.8697C13.3914 14.1338 13.1772 14.3479 12.9131 14.3479Z" fill="#B7B7B7"/>
<path d="M14.8261 14.3479C14.5619 14.3479 14.3478 14.1338 14.3478 13.8697V6.21753C14.3478 5.9534 14.5619 5.73926 14.8261 5.73926C15.0902 5.73926 15.3043 5.9534 15.3043 6.21753V13.8697C15.3043 14.1338 15.0902 14.3479 14.8261 14.3479Z" fill="#B7B7B7"/>
<path d="M16.7391 14.3479C16.475 14.3479 16.2609 14.1338 16.2609 13.8697V6.21753C16.2609 5.9534 16.475 5.73926 16.7391 5.73926C17.0033 5.73926 17.2174 5.9534 17.2174 6.21753V13.8697C17.2174 14.1338 17.0033 14.3479 16.7391 14.3479Z" fill="#B7B7B7"/>
<path d="M18.6521 16.261C18.388 16.261 18.1738 16.0469 18.1738 15.7827V6.21753C18.1738 5.9534 18.388 5.73926 18.6521 5.73926C18.9162 5.73926 19.1304 5.9534 19.1304 6.21753V15.7827C19.1304 16.0469 18.9162 16.261 18.6521 16.261Z" fill="#B7B7B7"/>
<path d="M5.26091 16.2608C5.19814 16.2627 5.13582 16.2496 5.07919 16.2225C5.01942 16.2023 4.96647 16.1659 4.92616 16.1173C4.74125 15.9407 4.73453 15.6476 4.91114 15.4628C4.91603 15.4577 4.92105 15.4526 4.92616 15.4478C4.96643 15.3992 5.01942 15.3627 5.07919 15.3425C5.19563 15.2947 5.32624 15.2947 5.44268 15.3425C5.50259 15.3625 5.55563 15.399 5.59571 15.4478C5.78062 15.6363 5.77766 15.9392 5.58903 16.1241C5.50129 16.2101 5.38381 16.259 5.26091 16.2608Z" fill="#B7B7B7"/>
<path d="M7.1739 16.2607C6.90976 16.2575 6.69827 16.0408 6.70145 15.7766C6.70293 15.6534 6.75189 15.5355 6.83816 15.4476C6.97218 15.3093 7.17726 15.2676 7.35468 15.3423C7.41458 15.3623 7.46762 15.3988 7.50771 15.4476C7.69261 15.6362 7.68965 15.939 7.50107 16.1239C7.41355 16.2097 7.29644 16.2587 7.1739 16.2607Z" fill="#B7B7B7"/>
<path d="M9.08699 16.2611C8.82285 16.2579 8.61135 16.0412 8.61454 15.7771C8.61602 15.6538 8.66498 15.536 8.75125 15.448C8.79151 15.3994 8.84451 15.363 8.90427 15.3428C9.08183 15.2696 9.28602 15.3112 9.4208 15.448C9.6057 15.6366 9.60275 15.9394 9.41412 16.1243C9.32637 16.2104 9.2089 16.2593 9.086 16.261H9.08699V16.2611Z" fill="#B7B7B7"/>
<path d="M12.913 16.2608C12.8503 16.2618 12.7882 16.2487 12.7313 16.2225C12.6715 16.2023 12.6186 16.1659 12.5783 16.1173C12.3934 15.9407 12.3866 15.6476 12.5632 15.4628C12.5681 15.4577 12.5732 15.4526 12.5783 15.4478C12.6185 15.3992 12.6715 15.3627 12.7313 15.3425C12.8477 15.2947 12.9783 15.2947 13.0948 15.3425C13.1547 15.3625 13.2077 15.399 13.2478 15.4478C13.4327 15.6363 13.4298 15.9392 13.2411 16.1241C13.1534 16.2101 13.0359 16.259 12.913 16.2608Z" fill="#B7B7B7"/>
<path d="M14.8261 16.2608C14.7634 16.2618 14.7013 16.2487 14.6444 16.2226C14.5846 16.2023 14.5317 16.1659 14.4913 16.1173C14.3064 15.9407 14.2997 15.6477 14.4763 15.4628C14.4812 15.4577 14.4862 15.4527 14.4913 15.4478C14.6773 15.2655 14.975 15.2655 15.1609 15.4478C15.3458 15.6229 15.3537 15.9147 15.1787 16.0995C15.1729 16.1056 15.167 16.1115 15.1609 16.1173C15.1208 16.1661 15.0677 16.2025 15.0079 16.2226C14.9509 16.2488 14.8888 16.2619 14.8261 16.2608Z" fill="#B7B7B7"/>
<path d="M16.7391 16.261C16.6764 16.262 16.6143 16.249 16.5574 16.2228C16.4976 16.2025 16.4447 16.1661 16.4044 16.1175C16.3114 16.0313 16.2592 15.9096 16.2609 15.7827C16.2585 15.7199 16.2717 15.6575 16.2991 15.601C16.3189 15.5413 16.355 15.4883 16.4034 15.448C16.4436 15.3994 16.4966 15.363 16.5564 15.3428C16.734 15.2696 16.9382 15.3112 17.0729 15.448C17.1213 15.4885 17.1577 15.5414 17.1782 15.601C17.2056 15.6576 17.2188 15.72 17.2164 15.7827C17.2094 16.0439 16.9993 16.254 16.7381 16.261H16.7391Z" fill="#B7B7B7"/>
<path d="M0.478276 6.69569C0.214141 6.69569 0 6.4816 0 6.21746V3.3479C0 3.08377 0.214141 2.86963 0.478276 2.86963H3.34784C3.61197 2.86963 3.82611 3.08377 3.82611 3.3479C3.82611 3.61204 3.61197 3.82618 3.34784 3.82618H0.956506V6.21746C0.956506 6.4816 0.74241 6.69569 0.478276 6.69569Z" fill="#B7B7B7"/>
<path d="M3.34784 19.1303H0.478275C0.214141 19.1303 0 18.9162 0 18.652V15.7825C0 15.5183 0.214141 15.3042 0.478275 15.3042C0.74241 15.3042 0.956506 15.5183 0.956506 15.7825V18.1738H3.34779C3.61193 18.1738 3.82607 18.3879 3.82607 18.652C3.82607 18.9162 3.61197 19.1303 3.34784 19.1303Z" fill="#B7B7B7"/>
<path d="M21.5217 6.69569C21.2575 6.69569 21.0434 6.48155 21.0434 6.21742V3.82613H18.6521C18.388 3.82613 18.1738 3.61199 18.1738 3.34786C18.1738 3.08373 18.388 2.86963 18.6521 2.86963H21.5217C21.7858 2.86963 21.9999 3.08377 21.9999 3.3479V6.21746C21.9999 6.4816 21.7858 6.69569 21.5217 6.69569Z" fill="#B7B7B7"/>
<path d="M21.5217 19.1303H18.6521C18.388 19.1303 18.1738 18.9162 18.1738 18.652C18.1738 18.3879 18.388 18.1738 18.6521 18.1738H21.0434V15.7825C21.0434 15.5183 21.2575 15.3042 21.5217 15.3042C21.7858 15.3042 21.9999 15.5183 21.9999 15.7825V18.652C21.9999 18.9162 21.7858 19.1303 21.5217 19.1303Z" fill="#B7B7B7"/>
</svg>
