<svg width="58" height="58" viewBox="0 0 58 58" fill="none" xmlns="http://www.w3.org/2000/svg">
<g clip-path="url(#clip0)">
<rect x="24" y="7" width="10" height="11" fill="#F2721B"/>
<rect x="24" y="25" width="10" height="32" fill="#F2721B"/>
<path d="M11 26L16.5 15.5L21 16L25.5 18L27 19L23 25L20 31.5L18.5 38L17.5 40.5L15.5 38L13 35.5L11.5 37L7.5 39L11 26Z" fill="#F2721B"/>
<path d="M47 26L41.5 15.5L37 16L32.5 18L31 19L35 25L38 31.5L39.5 38L40.5 40.5L42.5 38L45 35.5L46.5 37L50.5 39L47 26Z" fill="#F2721B"/>
<path d="M57.105 11.7028H52.3826C52.5198 11.5103 52.6441 11.308 52.753 11.0961C53.3778 9.87564 53.4623 8.43838 52.9849 7.15246L51.5538 3.30619C51.0768 2.02159 50.0745 0.988779 48.805 0.472816C47.5341 -0.0435892 46.0946 -0.00243609 44.8551 0.586098L33.5296 5.96477C32.9698 5.56474 32.2853 5.32844 31.5463 5.32844H26.4539C25.715 5.32844 25.0299 5.56518 24.4702 5.96521L13.1451 0.585655C11.9056 -0.00243604 10.4662 -0.0435892 9.19529 0.472816C7.92574 0.988779 6.92346 2.02159 6.44644 3.30574L5.01537 7.1529C4.53791 8.43838 4.62243 9.87564 5.24769 11.0961C5.3561 11.308 5.48089 11.5107 5.61807 11.7028H0.895191C0.400911 11.7028 0 12.1032 0 12.5979V19.0422C0 19.5364 0.400911 19.9374 0.895191 19.9374C1.38947 19.9374 1.79038 19.5364 1.79038 19.0422V13.4927H8.00804C8.10761 13.5277 8.2085 13.56 8.31072 13.5883L15.8258 15.657C14.1558 18.216 12.6827 20.9078 11.4215 23.6969H1.79038V22.6225C1.79038 22.1282 1.38947 21.7277 0.895191 21.7277C0.400911 21.7277 0 22.1282 0 22.6225V24.5921C0 25.0864 0.400911 25.4873 0.895191 25.4873H4.08743V57.1783C4.08743 57.673 4.48835 58.0735 4.98263 58.0735H53.0176C53.5119 58.0735 53.9128 57.673 53.9128 57.1783V51.9806C53.9128 51.4863 53.5119 51.0854 53.0176 51.0854C52.5229 51.0854 52.1224 51.4863 52.1224 51.9806V56.2835H34.3704V26.0378C36.9059 30.8403 38.6224 36.0623 39.4123 41.4578C39.4645 41.8149 39.7265 42.1056 40.0765 42.195C40.15 42.214 40.2243 42.2229 40.2982 42.2229C40.5748 42.2229 40.8412 42.0946 41.0129 41.8667C42.2997 40.1595 43.4962 38.3319 44.5764 36.4238C46.3853 37.6558 48.1416 39.0293 49.8081 40.5161C50.0891 40.7666 50.4971 40.8148 50.8285 40.6361C51.16 40.4577 51.3445 40.0909 51.2896 39.7183C50.575 34.8432 49.2426 30.0491 47.354 25.4873H52.122V48.3998C52.122 48.8946 52.5229 49.295 53.0172 49.295C53.5119 49.295 53.9124 48.8946 53.9124 48.3998V25.4873H57.105C57.5993 25.4873 57.9998 25.0864 57.9998 24.5921V12.5979C58.0002 12.1032 57.5998 11.7028 57.105 11.7028ZM45.6229 2.20302C46.4216 1.82423 47.3119 1.79857 48.131 2.13133C48.9488 2.46365 49.5683 3.10219 49.8758 3.93012L51.3064 7.77595C51.6144 8.60432 51.5618 9.49376 51.1591 10.2801C50.7568 11.066 50.0661 11.628 49.2147 11.8621L34.9656 15.7849V11.4828C38.1684 9.52164 46.153 5.47668 48.1403 8.28173C48.4257 8.68486 48.9842 8.78088 49.3877 8.49502C49.7913 8.20916 49.8869 7.65028 49.601 7.24715C48.0673 5.08197 44.8352 4.97665 39.9938 6.93474C37.9994 7.74099 36.1581 8.72512 34.9656 9.40791V8.74725C34.9656 8.26801 34.866 7.81135 34.6872 7.39672L45.6229 2.20302ZM26.4539 7.11838H31.5463C32.4446 7.11838 33.1752 7.8494 33.1752 8.74725V16.1464C33.1752 17.0447 32.4446 17.7753 31.5463 17.7753H26.4539C25.5556 17.7753 24.8251 17.0447 24.8251 16.1464V8.74725C24.8251 7.84896 25.5556 7.11838 26.4539 7.11838ZM24.9494 23.6965C25.8057 22.2738 26.7376 20.8949 27.7403 19.5657H30.2591C31.2622 20.8949 32.1941 22.2738 33.0499 23.6965H24.9494ZM6.84115 10.2801C6.43847 9.49376 6.38581 8.60432 6.69336 7.77639L8.12487 3.92968C8.43197 3.10219 9.05147 2.46365 9.86923 2.13133C10.6879 1.79857 11.5786 1.82423 12.3769 2.20302L23.313 7.3976C23.1343 7.81179 23.0347 8.26801 23.0347 8.74769V9.45924C21.8461 8.77513 19.9632 7.76179 17.918 6.93474C13.077 4.97665 9.84445 5.08197 8.31072 7.24715C8.02486 7.65028 8.12044 8.20916 8.52401 8.49502C8.92757 8.78088 9.48602 8.6853 9.77143 8.28173C11.7773 5.45013 19.8933 9.59819 23.0347 11.5373V15.7849L8.78597 11.8625C7.93415 11.628 7.24339 11.066 6.84115 10.2801ZM23.4365 17.7523C23.8821 18.5859 24.6627 19.2147 25.5977 19.4568C21.4111 25.2979 18.5291 32.0094 17.1772 39.0638C16.2263 37.6744 15.3373 36.2181 14.5235 34.714C14.4045 34.4936 14.1992 34.3334 13.9562 34.2719C13.7137 34.2104 13.4566 34.2533 13.2473 34.3901C11.7565 35.3623 10.2967 36.4287 8.88686 37.5739C10.3387 29.9531 13.3385 22.6048 17.6401 16.1566L23.4365 17.7523ZM5.87782 25.4873H10.6463C8.75765 30.0491 7.42526 34.8428 6.71017 39.7183C6.65574 40.0909 6.83983 40.4577 7.17126 40.6361C7.50314 40.8144 7.91069 40.7666 8.19168 40.5161C9.85816 39.0293 11.6145 37.6558 13.4239 36.4238C14.504 38.3319 15.7001 40.159 16.9874 41.8667C17.1591 42.0946 17.4255 42.2233 17.702 42.2233C17.7759 42.2233 17.8503 42.214 17.9237 42.195C18.2738 42.1056 18.5353 41.8149 18.5875 41.4578C19.3778 36.0623 21.0943 30.8398 23.6294 26.0373V56.2835H5.87782V25.4873ZM25.4198 56.2835V25.4873H32.5804V56.2835H25.4198ZM44.7529 34.3901C44.5436 34.2533 44.2861 34.2109 44.044 34.2724C43.8015 34.3339 43.5958 34.4941 43.4767 34.714C42.663 36.2181 41.774 37.6748 40.823 39.0638C39.4712 32.0089 36.5891 25.2979 32.4021 19.4572C33.3371 19.2156 34.1182 18.5864 34.5638 17.7523L40.3615 16.1561C44.6622 22.6057 47.662 29.9539 49.1138 37.5739C47.7036 36.4287 46.2437 35.3623 44.7529 34.3901ZM56.2099 23.6969H46.5791C45.318 20.9078 43.8449 18.216 42.1753 15.657L49.6895 13.5883C49.7917 13.56 49.8926 13.5277 49.9922 13.4927H56.2099V23.6969Z" fill="black"/>
</g>
<defs>
<clipPath id="clip0">
<rect width="58" height="58" fill="white"/>
</clipPath>
</defs>
</svg>
