<svg width="26" height="25" viewBox="0 0 26 25" fill="none" xmlns="http://www.w3.org/2000/svg">
<g clip-path="url(#clip0)">
<path d="M8.74142 16.4394H8.74252C8.74345 16.4394 8.74437 16.4392 8.7453 16.4392H21.6081C21.9248 16.4392 22.2032 16.2291 22.2902 15.9246L25.1281 5.99221C25.1892 5.77808 25.1464 5.54788 25.0124 5.37014C24.8783 5.19241 24.6686 5.08784 24.446 5.08784H7.10522L6.59807 2.80556C6.52583 2.48094 6.23798 2.25 5.90543 2.25H1.64867C1.2568 2.25 0.939209 2.56759 0.939209 2.95946C0.939209 3.35133 1.2568 3.66892 1.64867 3.66892H5.33638C5.42617 4.07335 7.76332 14.5907 7.89782 15.1958C7.14384 15.5235 6.61488 16.2753 6.61488 17.1486C6.61488 18.3222 7.5697 19.277 8.74326 19.277H21.6081C22 19.277 22.3176 18.9594 22.3176 18.5676C22.3176 18.1757 22 17.8581 21.6081 17.8581H8.74326C8.35214 17.8581 8.0338 17.5398 8.0338 17.1486C8.0338 16.7581 8.35103 16.4403 8.74142 16.4394ZM23.5054 6.50676L21.0729 15.0203H9.31231L7.42042 6.50676H23.5054Z" fill="white"/>
<path d="M8.03394 21.4052C8.03394 22.5788 8.98875 23.5336 10.1623 23.5336C11.3359 23.5336 12.2907 22.5788 12.2907 21.4052C12.2907 20.2317 11.3359 19.2769 10.1623 19.2769C8.98875 19.2769 8.03394 20.2317 8.03394 21.4052ZM10.1623 20.6958C10.5534 20.6958 10.8718 21.0141 10.8718 21.4052C10.8718 21.7964 10.5534 22.1147 10.1623 22.1147C9.77119 22.1147 9.45285 21.7964 9.45285 21.4052C9.45285 21.0141 9.77119 20.6958 10.1623 20.6958Z" fill="white"/>
<path d="M18.0608 21.4052C18.0608 22.5788 19.0156 23.5336 20.1892 23.5336C21.3627 23.5336 22.3175 22.5788 22.3175 21.4052C22.3175 20.2317 21.3627 19.2769 20.1892 19.2769C19.0156 19.2769 18.0608 20.2317 18.0608 21.4052ZM20.1892 20.6958C20.5803 20.6958 20.8986 21.0141 20.8986 21.4052C20.8986 21.7964 20.5803 22.1147 20.1892 22.1147C19.798 22.1147 19.4797 21.7964 19.4797 21.4052C19.4797 21.0141 19.798 20.6958 20.1892 20.6958Z" fill="white"/>
</g>
<defs>
<clipPath id="clip0">
<rect width="24.2162" height="24.2162" fill="white" transform="translate(0.939209 0.783691)"/>
</clipPath>
</defs>
</svg>
