<svg width="31" height="30" viewBox="0 0 31 30" fill="none" xmlns="http://www.w3.org/2000/svg">
<path d="M15.5 0C6.9409 0 0 6.717 0 15C0 23.283 6.9409 30 15.5 30C24.0591 30 31 23.283 31 15C31 6.717 24.0591 0 15.5 0ZM15.8285 23.7334C15.8283 23.7334 15.8288 23.7334 15.8285 23.7334H15.8247C14.272 23.7328 12.7463 23.356 11.3913 22.641L6.47355 23.8891L7.78973 19.2382C6.97779 17.8773 6.55065 16.3332 6.55136 14.7514C6.55349 9.80301 10.7151 5.77721 15.8285 5.77721C18.31 5.77812 20.6394 6.71288 22.3908 8.40912C24.1424 10.1056 25.1064 12.3605 25.1054 14.7585C25.1033 19.7072 20.9412 23.7334 15.8285 23.7334Z" fill="#25D366"/>
<path d="M15.8317 7.29297C11.5785 7.29297 8.11957 10.639 8.11768 14.752C8.1172 16.1615 8.52495 17.5341 9.29668 18.7217L9.47998 19.0039L8.70091 21.7567L11.6192 21.016L11.9009 21.1776C13.0846 21.8574 14.4418 22.217 15.8253 22.2174H15.8284C20.0783 22.2174 23.5373 18.8712 23.5392 14.7579C23.5399 12.7646 22.7386 10.8905 21.2828 9.48062C19.8271 8.07071 17.891 7.29366 15.8317 7.29297ZM20.3671 17.9591C20.1738 18.4828 19.2479 18.9609 18.8025 19.0255C18.4031 19.0831 17.8979 19.1072 17.3426 18.9366C17.0058 18.8332 16.5741 18.6952 16.0209 18.4642C13.6958 17.4929 12.1772 15.2278 12.0613 15.0782C11.9454 14.9285 11.1147 13.8621 11.1147 12.7582C11.1147 11.6545 11.7136 11.1119 11.926 10.8876C12.1386 10.663 12.3898 10.6069 12.5442 10.6069C12.6987 10.6069 12.8533 10.6083 12.9884 10.6147C13.1308 10.6216 13.3219 10.5623 13.5099 10.9997C13.7031 11.4488 14.1667 12.5524 14.2246 12.6646C14.2826 12.777 14.3211 12.9079 14.244 13.0576C14.1667 13.2073 13.9098 13.5302 13.6646 13.8246C13.5617 13.9479 13.4276 14.0578 13.5629 14.2823C13.6979 14.5066 14.1634 15.2411 14.8523 15.8358C15.7378 16.5998 16.4847 16.8364 16.7165 16.9488C16.9481 17.061 17.0833 17.0422 17.2186 16.8927C17.3537 16.743 17.7981 16.2379 17.9525 16.0134C18.107 15.7888 18.2616 15.8264 18.474 15.9012C18.6867 15.9758 19.8262 16.5185 20.0579 16.6307C20.2897 16.743 20.4442 16.7991 20.5021 16.8927C20.5603 16.9863 20.5603 17.4352 20.3671 17.9591Z" fill="#25D366"/>
</svg>
